<svg version="1.1" xmlns="http://www.w3.org/2000/svg" xmlns:xlink="http://www.w3.org/1999/xlink" width="500" height="500"><g data-paper-data="{&quot;description&quot;:&quot;Logo for Aelly sister\n=====================\n\nThis logo was generated by MarkMaker at http://emblemmatic.org/markmaker/ and may be composed of elements designed by others.\n\nThe font is Gentium Basic Bold Italic designed by Victor Gaultney and released under the OFL license via Google Fonts: https://www.google.com/fonts/specimen/Gentium%20Basic. The font includes this copyright statement: Copyright (c) 2003-2013, SIL International (http://www.sil.org/) with Reserved Font Names \\\&quot;Gentium\\\&quot; and \\\&quot;SIL\\\n\nMarkMaker uses semantic data from the Princeton University WordNet database http://wordnet.princeton.edu and font descriptions from Google Fonts https://www.google.com/fonts.&quot;}" fill="#010303" fill-rule="nonzero" stroke="none" stroke-width="1" stroke-linecap="butt" stroke-linejoin="miter" stroke-miterlimit="10" stroke-dasharray="" stroke-dashoffset="0" font-family="none" font-weight="none" font-size="none" text-anchor="none" style="mix-blend-mode: normal"><g data-paper-data="{&quot;elementType&quot;:&quot;logo&quot;}"><g data-paper-data="{&quot;elementType&quot;:&quot;text&quot;}"><g data-paper-data="{&quot;baseline&quot;:64.306640625,&quot;elementType&quot;:&quot;row&quot;}"><g data-paper-data="{&quot;baselineProportion&quot;:1,&quot;fontSize&quot;:100,&quot;baseline&quot;:64.306640625,&quot;elementType&quot;:&quot;word&quot;}"><path d="M82.51191,200.8369l-9.80763,22.24093c-0.66929,1.59599 -0.25742,2.7415 1.23561,3.43653c1.49303,0.69503 4.17017,1.29996 8.03145,1.8148l-0.69503,5.63746h-31.2763l0.77225,-5.63746c3.29495,-0.6178 5.85626,-1.26135 7.68393,-1.93064c1.82767,-0.66929 3.07615,-1.77619 3.74543,-3.32069l36.14151,-82.16787c1.28709,-1.02967 2.66428,-1.99499 4.13156,-2.89595c1.46728,-0.90096 2.97318,-1.71183 4.51769,-2.4326c1.54451,-0.72077 3.06328,-1.35145 4.5563,-1.89202c1.49303,-0.54058 2.88308,-1.0168 4.17017,-1.42867l17.53018,90.81712c0.15445,0.72077 0.37326,1.36432 0.65642,1.93064c0.28316,0.56632 0.72077,1.05541 1.31283,1.46728c0.59206,0.41187 1.37719,0.77225 2.35538,1.08116c0.97819,0.3089 2.23954,0.56632 3.78405,0.77225l-0.69503,5.63746h-35.60093l0.77225,-5.63746c3.70682,-0.25742 6.29387,-0.77225 7.76116,-1.54451c1.46728,-0.77225 2.04647,-2.00786 1.73757,-3.70682l-4.17017,-22.24093h-28.65064M109.38637,191.49262l-6.95029,-36.45041l-15.83122,36.45041z" data-paper-data="{&quot;elementType&quot;:&quot;letter&quot;,&quot;baseline&quot;:64.306640625,&quot;baselineProportion&quot;:1,&quot;fontSize&quot;:100}"></path><path d="M209.07885,210.49008c-0.51484,2.2138 -1.06829,4.54343 -1.66035,6.9889c-0.59206,2.44547 -1.17125,4.76224 -1.73757,6.95029c-0.56632,2.18805 -1.09403,4.13156 -1.58312,5.83052c-0.48909,1.69896 -0.88809,2.93457 -1.19699,3.70682h-67.57226l0.77225,-5.63746c3.34644,-0.72077 5.90775,-1.5059 7.68393,-2.35538c1.77619,-0.84948 2.71576,-1.63461 2.81873,-2.35538l10.50266,-76.53042c0.10297,-0.6178 -0.56632,-1.39006 -2.00786,-2.31676c-1.44154,-0.92671 -3.83553,-1.75044 -7.18197,-2.47121l0.77225,-5.63746h63.09319l2.47121,2.47121c-0.25742,1.33857 -0.6178,3.01179 -1.08116,5.01965c-0.46335,2.00786 -0.97819,4.06721 -1.54451,6.17804c-0.56632,2.11083 -1.13264,4.10582 -1.69896,5.98497c-0.56632,1.87915 -1.05541,3.30782 -1.46728,4.28601h-5.40578c0.41187,-4.78798 0.3089,-8.43044 -0.3089,-10.9274c-0.6178,-2.49696 -1.82767,-3.74543 -3.6296,-3.74543h-24.01711l-4.32462,31.2763h28.49619l2.08509,2.70289c-0.46335,0.72077 -1.04254,1.57025 -1.73757,2.54844c-0.69503,0.97819 -1.40293,1.94351 -2.1237,2.89595c-0.72077,0.95245 -1.44154,1.85341 -2.16231,2.70289c-0.72077,0.84948 -1.36432,1.48015 -1.93064,1.89202c-0.66929,-0.77225 -1.40293,-1.42867 -2.20093,-1.96925c-0.798,-0.54058 -1.75044,-0.97819 -2.85734,-1.31283c-1.1069,-0.33464 -2.45834,-0.57919 -4.05434,-0.73364c-1.59599,-0.15445 -3.50089,-0.23168 -5.71468,-0.23168h-8.95815l-4.63353,34.05642c-0.10297,0.77225 -0.02574,1.45441 0.23168,2.04647c0.25742,0.59206 0.88809,1.1069 1.89202,1.54451c1.00393,0.43761 2.44547,0.77225 4.32462,1.00393c1.87915,0.23168 4.38898,0.34751 7.52948,0.34751h7.10474c2.16231,0 4.05434,-0.28316 5.67607,-0.84948c1.62173,-0.56632 3.10189,-1.48015 4.44046,-2.7415c1.33857,-1.26135 2.62567,-2.9217 3.86127,-4.98104c1.23561,-2.05935 2.57418,-4.60778 4.01572,-7.64532z" data-paper-data="{&quot;elementType&quot;:&quot;letter&quot;,&quot;baseline&quot;:61.5234375,&quot;baselineProportion&quot;:1,&quot;fontSize&quot;:100}"></path><path d="M276.18221,210.49008c-0.46335,2.2138 -1.00393,4.54343 -1.62173,6.9889c-0.6178,2.44547 -1.20987,4.76224 -1.77619,6.95029c-0.56632,2.18805 -1.09403,4.13156 -1.58312,5.83052c-0.48909,1.69896 -0.88809,2.93457 -1.19699,3.70682h-66.87723l0.77225,-5.63746c3.34644,-0.72077 5.90775,-1.5059 7.68393,-2.35538c1.77619,-0.84948 2.71576,-1.63461 2.81873,-2.35538l10.50266,-76.53042c0.10297,-0.6178 -0.56632,-1.39006 -2.00786,-2.31676c-1.44154,-0.92671 -3.83553,-1.75044 -7.18197,-2.47121l0.77225,-5.63746h37.60879l-0.77225,5.63746c-3.34644,0.72077 -5.92062,1.51877 -7.72254,2.39399c-1.80193,0.87522 -2.75437,1.67322 -2.85734,2.39399l-9.88486,72.05134c-0.10297,0.92671 0,1.73757 0.3089,2.4326c0.3089,0.69503 0.93958,1.27422 1.89202,1.73757c0.95245,0.46335 2.26528,0.81087 3.9385,1.04254c1.67322,0.23168 3.82266,0.34751 6.44832,0.34751h8.03145c2.16231,0 4.04146,-0.28316 5.63746,-0.84948c1.59599,-0.56632 3.05041,-1.48015 4.36324,-2.7415c1.31283,-1.26135 2.57418,-2.9217 3.78405,-4.98104c1.20987,-2.05935 2.53557,-4.60778 3.97711,-7.64532z" data-paper-data="{&quot;elementType&quot;:&quot;letter&quot;,&quot;baseline&quot;:61.5234375,&quot;baselineProportion&quot;:1,&quot;fontSize&quot;:100}"></path><path d="M342.74498,210.49008c-0.46335,2.2138 -1.00393,4.54343 -1.62173,6.9889c-0.6178,2.44547 -1.20987,4.76224 -1.77619,6.95029c-0.56632,2.18805 -1.09403,4.13156 -1.58312,5.83052c-0.48909,1.69896 -0.88809,2.93457 -1.19699,3.70682h-66.87723l0.77225,-5.63746c3.34644,-0.72077 5.90775,-1.5059 7.68393,-2.35538c1.77619,-0.84948 2.71576,-1.63461 2.81873,-2.35538l10.50266,-76.53042c0.10297,-0.6178 -0.56632,-1.39006 -2.00786,-2.31676c-1.44154,-0.92671 -3.83553,-1.75044 -7.18197,-2.47121l0.77225,-5.63746h37.60879l-0.77225,5.63746c-3.34644,0.72077 -5.92062,1.51877 -7.72254,2.39399c-1.80193,0.87522 -2.75437,1.67322 -2.85734,2.39399l-9.88486,72.05134c-0.10297,0.92671 0,1.73757 0.3089,2.4326c0.3089,0.69503 0.93958,1.27422 1.89202,1.73757c0.95245,0.46335 2.26528,0.81087 3.9385,1.04254c1.67322,0.23168 3.82266,0.34751 6.44832,0.34751h8.03145c2.16231,0 4.04146,-0.28316 5.63746,-0.84948c1.59599,-0.56632 3.05041,-1.48015 4.36324,-2.7415c1.31283,-1.26135 2.57418,-2.9217 3.78405,-4.98104c1.20987,-2.05935 2.53557,-4.60778 3.97711,-7.64532z" data-paper-data="{&quot;elementType&quot;:&quot;letter&quot;,&quot;baseline&quot;:61.5234375,&quot;baselineProportion&quot;:1,&quot;fontSize&quot;:100}"></path><path d="M398.80509,233.96662h-40.38891l0.77225,-5.63746c2.2138,-0.46335 4.06721,-0.95245 5.56023,-1.46728c1.49303,-0.51484 2.70289,-1.0168 3.6296,-1.5059c0.92671,-0.48909 1.59599,-0.95245 2.00786,-1.39006c0.41187,-0.43761 0.64355,-0.83661 0.69503,-1.19699l4.09295,-29.96347c-1.08116,-4.01572 -2.38112,-8.17303 -3.89988,-12.47191c-1.51877,-4.29888 -3.10189,-8.4948 -4.74936,-12.58775c-1.64748,-4.09295 -3.30782,-7.90274 -4.98104,-11.42937c-1.67322,-3.52663 -3.2306,-6.52555 -4.67214,-8.99676c-0.36039,-0.6178 -0.75938,-1.14551 -1.19699,-1.58312c-0.43761,-0.43761 -1.04254,-0.798 -1.8148,-1.08116c-0.77225,-0.28316 -1.77619,-0.47622 -3.01179,-0.57919c-1.23561,-0.10297 -2.8316,-0.12871 -4.78798,-0.07723l0.23168,-5.63746c1.44154,-0.25742 3.10189,-0.54058 4.98104,-0.84948c1.87915,-0.3089 3.74543,-0.59206 5.59884,-0.84948c1.85341,-0.25742 3.60385,-0.47622 5.25133,-0.65642c1.64748,-0.18019 2.96031,-0.27029 3.9385,-0.27029c1.18412,0 2.39399,0.3089 3.6296,0.92671c1.23561,0.6178 2.18805,1.51877 2.85734,2.70289c1.44154,2.57418 2.96031,5.5731 4.5563,8.99676c1.59599,3.42366 3.15337,7.02752 4.67214,10.81156c1.51877,3.78405 2.94744,7.61958 4.28601,11.50659c1.33857,3.88701 2.5227,7.52948 3.55237,10.9274l21.39145,-34.21087c0.87522,-1.39006 0.77225,-2.45834 -0.3089,-3.20486c-1.08116,-0.74651 -3.42366,-1.37719 -7.02752,-1.89202l0.77225,-5.63746h29.88625l-0.77225,5.63746c-1.64748,0.3089 -3.08902,0.63067 -4.32462,0.96532c-1.23561,0.33464 -2.29102,0.69503 -3.16624,1.08116c-0.87522,0.38613 -1.62173,0.82374 -2.23954,1.31283c-0.6178,0.48909 -1.13264,1.06829 -1.54451,1.73757l-29.26844,46.18082l-4.01572,29.19122c-0.05148,0.3089 0.06435,0.68216 0.34751,1.11977c0.28316,0.43761 0.82374,0.91383 1.62173,1.42867c0.798,0.51484 1.89202,1.02967 3.28208,1.54451c1.39006,0.51484 3.16624,1.00393 5.32856,1.46728z" data-paper-data="{&quot;elementType&quot;:&quot;letter&quot;,&quot;baseline&quot;:62.109375,&quot;baselineProportion&quot;:1,&quot;fontSize&quot;:100}"></path></g></g><g data-paper-data="{&quot;baseline&quot;:62.98828125,&quot;elementType&quot;:&quot;row&quot;}"><g data-paper-data="{&quot;baselineProportion&quot;:0.9765329295987888,&quot;fontSize&quot;:100,&quot;baseline&quot;:62.98828125,&quot;elementType&quot;:&quot;word&quot;}"><path d="M122.36024,272.82922c0.20593,0.15445 0.19306,0.6178 -0.03861,1.39006c-0.23168,0.77225 -0.59206,1.68609 -1.08116,2.7415c-0.48909,1.05541 -1.08116,2.20093 -1.77619,3.43653c-0.69503,1.23561 -1.39006,2.39399 -2.08509,3.47514c-0.69503,1.08116 -1.35145,2.02073 -1.96925,2.81873c-0.6178,0.798 -1.1069,1.29996 -1.46728,1.5059l-4.5563,-0.46335c-0.6178,-2.16231 -1.46728,-4.04146 -2.54844,-5.63746c-1.08116,-1.59599 -2.27815,-2.9217 -3.59098,-3.97711c-1.31283,-1.05541 -2.72863,-1.85341 -4.2474,-2.39399c-1.51877,-0.54058 -3.05041,-0.81087 -4.59491,-0.81087c-2.62567,0 -4.90382,0.38613 -6.83445,1.15838c-1.93064,0.77225 -3.52663,1.80193 -4.78798,3.08902c-1.26135,1.28709 -2.20093,2.7415 -2.81873,4.36324c-0.6178,1.62173 -0.92671,3.28208 -0.92671,4.98104c0,1.13264 0.18019,2.31676 0.54058,3.55237c0.36039,1.23561 1.1069,2.5227 2.23954,3.86127c1.13264,1.33857 2.7415,2.76725 4.82659,4.28601c2.08509,1.51877 4.85233,3.15337 8.30174,4.90382c4.06721,2.11083 7.56809,4.14443 10.50266,6.10081c2.93457,1.95638 5.3543,3.98998 7.25919,6.10081c1.90489,2.11083 3.30782,4.35037 4.20879,6.71861c0.90096,2.36825 1.35145,4.99391 1.35145,7.877c0,4.83946 -1.05541,9.4215 -3.16624,13.74613c-2.11083,4.32462 -5.00678,8.12154 -8.68786,11.39075c-3.68108,3.26921 -8.0057,5.86913 -12.97387,7.79977c-4.96817,1.93064 -10.28385,2.89595 -15.94705,2.89595c-1.75044,0 -3.65534,-0.15445 -5.71468,-0.46335c-2.05935,-0.3089 -4.10582,-0.73364 -6.13942,-1.27422c-2.0336,-0.54058 -3.98998,-1.18412 -5.86913,-1.93064c-1.87915,-0.74651 -3.5395,-1.57025 -4.98104,-2.47121c-1.44154,-0.90096 -2.59992,-1.84054 -3.47514,-2.81873c-0.87522,-0.97819 -1.31283,-1.95638 -1.31283,-2.93457c0,-0.51484 0.19306,-1.23561 0.57919,-2.16231c0.38613,-0.92671 0.91383,-1.93064 1.58312,-3.01179c0.66929,-1.08116 1.40293,-2.18805 2.20093,-3.32069c0.798,-1.13264 1.60886,-2.16231 2.4326,-3.08902c0.82374,-0.92671 1.62173,-1.68609 2.39399,-2.27815c0.77225,-0.59206 1.4158,-0.88809 1.93064,-0.88809c0.56632,0 1.19699,0.38613 1.89202,1.15838c0.69503,0.77225 1.49303,1.73757 2.39399,2.89595c0.90096,1.15838 1.91777,2.41973 3.05041,3.78405c1.13264,1.36432 2.4326,2.62567 3.89988,3.78405c1.46728,1.15838 3.08902,2.1237 4.8652,2.89595c1.77619,0.77225 3.77118,1.15838 5.98497,1.15838c2.47121,0 4.80085,-0.41187 6.9889,-1.23561c2.18805,-0.82374 4.09295,-1.98212 5.71468,-3.47514c1.62173,-1.49303 2.90883,-3.32069 3.86127,-5.48301c0.95245,-2.16231 1.42867,-4.60778 1.42867,-7.33642c0,-2.2138 -0.37326,-4.27314 -1.11977,-6.17804c-0.74651,-1.90489 -1.95638,-3.74543 -3.6296,-5.52162c-1.67322,-1.77619 -3.86127,-3.51376 -6.56416,-5.21272c-2.70289,-1.69896 -6.01071,-3.47514 -9.92347,-5.32856c-3.39792,-1.59599 -6.20378,-3.28208 -8.41757,-5.05827c-2.2138,-1.77619 -3.95137,-3.6296 -5.21272,-5.56023c-1.26135,-1.93064 -2.14944,-3.95137 -2.66428,-6.0622c-0.51484,-2.11083 -0.77225,-4.32462 -0.77225,-6.64139c0,-3.39792 0.86235,-6.7701 2.58705,-10.11653c1.7247,-3.34644 4.19592,-6.33249 7.41364,-8.95815c3.21773,-2.62567 7.079,-4.76224 11.58382,-6.40971c4.50482,-1.64748 9.53734,-2.47121 15.09757,-2.47121c4.89094,0 9.2928,0.7079 13.20555,2.1237c3.91276,1.4158 7.10474,3.07615 9.57596,4.98104z" data-paper-data="{&quot;elementType&quot;:&quot;letter&quot;,&quot;baseline&quot;:62.98828125,&quot;baselineProportion&quot;:0.9765329295987888,&quot;fontSize&quot;:100}"></path><path d="M164.2881,273.6787c-3.29495,0.72077 -5.84339,1.51877 -7.64532,2.39399c-1.80193,0.87522 -2.75437,1.67322 -2.85734,2.39399l-10.50266,76.53042c-0.10297,0.6178 0.55345,1.37719 1.96925,2.27815c1.4158,0.90096 3.82266,1.71183 7.22058,2.4326l-0.77225,5.63746h-37.45434l0.77225,-5.63746c3.24347,-0.72077 5.76617,-1.5059 7.56809,-2.35538c1.80193,-0.84948 2.75437,-1.63461 2.85734,-2.35538l10.42543,-76.53042c0.10297,-0.6178 -0.55345,-1.39006 -1.96925,-2.31676c-1.4158,-0.92671 -3.79692,-1.75044 -7.14335,-2.47121l0.77225,-5.63746h37.53157z" data-paper-data="{&quot;elementType&quot;:&quot;letter&quot;,&quot;baseline&quot;:61.5234375,&quot;baselineProportion&quot;:1,&quot;fontSize&quot;:100}"></path><path d="M226.21734,272.82922c0.20593,0.15445 0.19306,0.6178 -0.03861,1.39006c-0.23168,0.77225 -0.59206,1.68609 -1.08116,2.7415c-0.48909,1.05541 -1.08116,2.20093 -1.77619,3.43653c-0.69503,1.23561 -1.39006,2.39399 -2.08509,3.47514c-0.69503,1.08116 -1.35145,2.02073 -1.96925,2.81873c-0.6178,0.798 -1.1069,1.29996 -1.46728,1.5059l-4.5563,-0.46335c-0.6178,-2.16231 -1.46728,-4.04146 -2.54844,-5.63746c-1.08116,-1.59599 -2.27815,-2.9217 -3.59098,-3.97711c-1.31283,-1.05541 -2.72863,-1.85341 -4.2474,-2.39399c-1.51877,-0.54058 -3.05041,-0.81087 -4.59491,-0.81087c-2.62567,0 -4.90382,0.38613 -6.83445,1.15838c-1.93064,0.77225 -3.52663,1.80193 -4.78798,3.08902c-1.26135,1.28709 -2.20093,2.7415 -2.81873,4.36324c-0.6178,1.62173 -0.92671,3.28208 -0.92671,4.98104c0,1.13264 0.18019,2.31676 0.54058,3.55237c0.36039,1.23561 1.1069,2.5227 2.23954,3.86127c1.13264,1.33857 2.7415,2.76725 4.82659,4.28601c2.08509,1.51877 4.85233,3.15337 8.30174,4.90382c4.06721,2.11083 7.56809,4.14443 10.50266,6.10081c2.93457,1.95638 5.3543,3.98998 7.25919,6.10081c1.90489,2.11083 3.30782,4.35037 4.20879,6.71861c0.90096,2.36825 1.35145,4.99391 1.35145,7.877c0,4.83946 -1.05541,9.4215 -3.16624,13.74613c-2.11083,4.32462 -5.00678,8.12154 -8.68786,11.39075c-3.68108,3.26921 -8.0057,5.86913 -12.97387,7.79977c-4.96817,1.93064 -10.28385,2.89595 -15.94705,2.89595c-1.75044,0 -3.65534,-0.15445 -5.71468,-0.46335c-2.05935,-0.3089 -4.10582,-0.73364 -6.13942,-1.27422c-2.0336,-0.54058 -3.98998,-1.18412 -5.86913,-1.93064c-1.87915,-0.74651 -3.5395,-1.57025 -4.98104,-2.47121c-1.44154,-0.90096 -2.59992,-1.84054 -3.47514,-2.81873c-0.87522,-0.97819 -1.31283,-1.95638 -1.31283,-2.93457c0,-0.51484 0.19306,-1.23561 0.57919,-2.16231c0.38613,-0.92671 0.91383,-1.93064 1.58312,-3.01179c0.66929,-1.08116 1.40293,-2.18805 2.20093,-3.32069c0.798,-1.13264 1.60886,-2.16231 2.4326,-3.08902c0.82374,-0.92671 1.62173,-1.68609 2.39399,-2.27815c0.77225,-0.59206 1.4158,-0.88809 1.93064,-0.88809c0.56632,0 1.19699,0.38613 1.89202,1.15838c0.69503,0.77225 1.49303,1.73757 2.39399,2.89595c0.90096,1.15838 1.91777,2.41973 3.05041,3.78405c1.13264,1.36432 2.4326,2.62567 3.89988,3.78405c1.46728,1.15838 3.08902,2.1237 4.8652,2.89595c1.77619,0.77225 3.77118,1.15838 5.98497,1.15838c2.47121,0 4.80085,-0.41187 6.9889,-1.23561c2.18805,-0.82374 4.09295,-1.98212 5.71468,-3.47514c1.62173,-1.49303 2.90883,-3.32069 3.86127,-5.48301c0.95245,-2.16231 1.42867,-4.60778 1.42867,-7.33642c0,-2.2138 -0.37326,-4.27314 -1.11977,-6.17804c-0.74651,-1.90489 -1.95638,-3.74543 -3.6296,-5.52162c-1.67322,-1.77619 -3.86127,-3.51376 -6.56416,-5.21272c-2.70289,-1.69896 -6.01071,-3.47514 -9.92347,-5.32856c-3.39792,-1.59599 -6.20378,-3.28208 -8.41757,-5.05827c-2.2138,-1.77619 -3.95137,-3.6296 -5.21272,-5.56023c-1.26135,-1.93064 -2.14944,-3.95137 -2.66428,-6.0622c-0.51484,-2.11083 -0.77225,-4.32462 -0.77225,-6.64139c0,-3.39792 0.86235,-6.7701 2.58705,-10.11653c1.7247,-3.34644 4.19592,-6.33249 7.41364,-8.95815c3.21773,-2.62567 7.079,-4.76224 11.58382,-6.40971c4.50482,-1.64748 9.53734,-2.47121 15.09757,-2.47121c4.89094,0 9.2928,0.7079 13.20555,2.1237c3.91276,1.4158 7.10474,3.07615 9.57596,4.98104z" data-paper-data="{&quot;elementType&quot;:&quot;letter&quot;,&quot;baseline&quot;:62.98828125,&quot;baselineProportion&quot;:0.9765329295987888,&quot;fontSize&quot;:100}"></path><path d="M275.63607,365.3453h-40.23446l0.69503,-5.63746c2.26528,-0.46335 4.14443,-0.95245 5.63746,-1.46728c1.49303,-0.51484 2.70289,-1.0168 3.6296,-1.5059c0.92671,-0.48909 1.59599,-0.95245 2.00786,-1.39006c0.41187,-0.43761 0.64355,-0.83661 0.69503,-1.19699l10.50266,-76.83932h-18.07075c-0.72077,0 -1.42867,0.27029 -2.1237,0.81087c-0.69503,0.54058 -1.46728,1.45441 -2.31676,2.7415c-0.84948,1.28709 -1.8148,2.96031 -2.89595,5.01965c-1.08116,2.05935 -2.36825,4.58204 -3.86127,7.56809l-4.94243,-2.08509c0.3089,-1.44154 0.7079,-3.2306 1.19699,-5.36717c0.48909,-2.13657 1.02967,-4.31175 1.62173,-6.52555c0.59206,-2.2138 1.17125,-4.3375 1.73757,-6.3711c0.56632,-2.0336 1.08116,-3.71969 1.54451,-5.05827h76.53042l2.23954,2.47121c-0.20593,1.28709 -0.52771,2.88308 -0.96532,4.78798c-0.43761,1.90489 -0.92671,3.89988 -1.46728,5.98497c-0.54058,2.08509 -1.09403,4.13156 -1.66035,6.13942c-0.56632,2.00786 -1.08116,3.78405 -1.54451,5.32856h-5.32856c-0.15445,-2.41973 -0.27029,-4.59491 -0.34751,-6.52555c-0.07723,-1.93064 -0.23168,-3.55237 -0.46335,-4.8652c-0.23168,-1.31283 -0.60493,-2.31676 -1.11977,-3.01179c-0.51484,-0.69503 -1.28709,-1.04254 -2.31676,-1.04254h-17.53018l-10.50266,76.83932c-0.05148,0.3089 0.06435,0.68216 0.34751,1.11977c0.28316,0.43761 0.81087,0.91383 1.58312,1.42867c0.77225,0.51484 1.85341,1.02967 3.24347,1.54451c1.39006,0.51484 3.1405,1.00393 5.25133,1.46728z" data-paper-data="{&quot;elementType&quot;:&quot;letter&quot;,&quot;baseline&quot;:61.5234375,&quot;baselineProportion&quot;:1,&quot;fontSize&quot;:100}"></path><path d="M365.7526,341.86877c-0.51484,2.2138 -1.06829,4.54343 -1.66035,6.9889c-0.59206,2.44547 -1.17125,4.76224 -1.73757,6.95029c-0.56632,2.18805 -1.09403,4.13156 -1.58312,5.83052c-0.48909,1.69896 -0.88809,2.93457 -1.19699,3.70682h-67.57226l0.77225,-5.63746c3.34644,-0.72077 5.90775,-1.5059 7.68393,-2.35538c1.77619,-0.84948 2.71576,-1.63461 2.81873,-2.35538l10.50266,-76.53042c0.10297,-0.6178 -0.56632,-1.39006 -2.00786,-2.31676c-1.44154,-0.92671 -3.83553,-1.75044 -7.18197,-2.47121l0.77225,-5.63746h63.09319l2.47121,2.47121c-0.25742,1.33857 -0.6178,3.01179 -1.08116,5.01965c-0.46335,2.00786 -0.97819,4.06721 -1.54451,6.17804c-0.56632,2.11083 -1.13264,4.10582 -1.69896,5.98497c-0.56632,1.87915 -1.05541,3.30782 -1.46728,4.28601h-5.40578c0.41187,-4.78798 0.3089,-8.43044 -0.3089,-10.9274c-0.6178,-2.49696 -1.82767,-3.74543 -3.6296,-3.74543h-24.01711l-4.32462,31.2763h28.49619l2.08509,2.70289c-0.46335,0.72077 -1.04254,1.57025 -1.73757,2.54844c-0.69503,0.97819 -1.40293,1.94351 -2.1237,2.89595c-0.72077,0.95245 -1.44154,1.85341 -2.16231,2.70289c-0.72077,0.84948 -1.36432,1.48015 -1.93064,1.89202c-0.66929,-0.77225 -1.40293,-1.42867 -2.20093,-1.96925c-0.798,-0.54058 -1.75044,-0.97819 -2.85734,-1.31283c-1.1069,-0.33464 -2.45834,-0.57919 -4.05434,-0.73364c-1.59599,-0.15445 -3.50089,-0.23168 -5.71468,-0.23168h-8.95815l-4.63353,34.05642c-0.10297,0.77225 -0.02574,1.45441 0.23168,2.04647c0.25742,0.59206 0.88809,1.1069 1.89202,1.54451c1.00393,0.43761 2.44547,0.77225 4.32462,1.00393c1.87915,0.23168 4.38898,0.34751 7.52948,0.34751h7.10474c2.16231,0 4.05434,-0.28316 5.67607,-0.84948c1.62173,-0.56632 3.10189,-1.48015 4.44046,-2.7415c1.33857,-1.26135 2.62567,-2.9217 3.86127,-4.98104c1.23561,-2.05935 2.57418,-4.60778 4.01572,-7.64532z" data-paper-data="{&quot;elementType&quot;:&quot;letter&quot;,&quot;baseline&quot;:61.5234375,&quot;baselineProportion&quot;:1,&quot;fontSize&quot;:100}"></path><path d="M450,356.30993c-2.00786,1.33857 -4.19592,2.62567 -6.56416,3.86127c-2.36825,1.23561 -4.6464,2.31676 -6.83445,3.24347c-2.18805,0.92671 -4.14443,1.66035 -5.86913,2.20093c-1.7247,0.54058 -2.9217,0.81087 -3.59098,0.81087c-0.87522,0 -1.73757,-0.11584 -2.58705,-0.34751c-0.84948,-0.23168 -1.69896,-0.7079 -2.54844,-1.42867c-0.84948,-0.72077 -1.69896,-1.75044 -2.54844,-3.08902c-0.84948,-1.33857 -1.68609,-3.08902 -2.50983,-5.25133l-13.90058,-35.83261c-1.44154,-0.05148 -2.97318,-0.14158 -4.59491,-0.27029c-1.62173,-0.12871 -3.12763,-0.37326 -4.51769,-0.73364l-4.78798,35.5237c-0.15445,0.6178 0.57919,1.37719 2.20093,2.27815c1.62173,0.90096 4.05434,1.71183 7.2978,2.4326l-0.77225,5.63746h-38.07214l0.77225,-5.63746c3.24347,-0.72077 5.7533,-1.5059 7.52948,-2.35538c1.77619,-0.84948 2.71576,-1.63461 2.81873,-2.35538l10.73434,-79.31053c-1.95638,0.25742 -3.86127,0.55345 -5.71468,0.88809c-1.85341,0.33464 -3.60385,0.68216 -5.25133,1.04254l0.07723,-7.02752c2.31676,-0.66929 4.89094,-1.29996 7.72254,-1.89202c2.8316,-0.59206 5.81765,-1.1069 8.95815,-1.54451c3.1405,-0.43761 6.42258,-0.78513 9.84624,-1.04254c3.42366,-0.25742 6.88594,-0.38613 10.38682,-0.38613c5.40578,0 10.2195,0.52771 14.44116,1.58312c4.22166,1.05541 7.7869,2.62567 10.69572,4.71075c2.90883,2.08509 5.12262,4.65927 6.64139,7.72254c1.51877,3.06328 2.27815,6.60278 2.27815,10.6185c0,2.5227 -0.55345,5.18698 -1.66035,7.99283c-1.1069,2.80586 -2.71576,5.52162 -4.82659,8.14728c-2.11083,2.62567 -4.71075,5.01965 -7.79977,7.18197c-3.08902,2.16231 -6.64139,3.83553 -10.65711,5.01965l17.06682,30.11792c0.77225,1.33857 1.54451,2.32963 2.31676,2.97318c0.77225,0.64355 1.68609,1.0168 2.7415,1.11977c1.05541,0.10297 2.30389,-0.01287 3.74543,-0.34751c1.44154,-0.33464 3.21773,-0.83661 5.32856,-1.5059zM403.81918,273.91038c-0.6178,0 -1.23561,0.01287 -1.85341,0.03861c-0.6178,0.02574 -1.23561,0.03861 -1.85341,0.03861l-5.01965,36.99099c1.23561,0.41187 2.44547,0.66929 3.6296,0.77225c1.18412,0.10297 2.44547,0.15445 3.78405,0.15445c2.67715,0 5.2642,-0.42474 7.76116,-1.27422c2.49696,-0.84948 4.71075,-2.09796 6.64139,-3.74543c1.93064,-1.64748 3.46227,-3.66821 4.59491,-6.0622c1.13264,-2.39399 1.69896,-5.13549 1.69896,-8.22451c0,-3.80979 -0.60493,-6.92455 -1.8148,-9.34428c-1.20987,-2.41973 -2.76725,-4.32462 -4.67214,-5.71468c-1.90489,-1.39006 -3.98998,-2.34251 -6.25526,-2.85734c-2.26528,-0.51484 -4.47908,-0.77225 -6.64139,-0.77225" data-paper-data="{&quot;elementType&quot;:&quot;letter&quot;,&quot;baseline&quot;:62.98828125,&quot;baselineProportion&quot;:0.9892638036809815,&quot;fontSize&quot;:100}"></path></g></g></g></g></g></svg>