<svg version="1.1" xmlns="http://www.w3.org/2000/svg" xmlns:xlink="http://www.w3.org/1999/xlink" width="500" height="500"><defs><linearGradient x1="132.47763" y1="237.94755" x2="132.47763" y2="262.05245" gradientUnits="userSpaceOnUse" id="color-1"><stop offset="0" stop-color="#010302"></stop><stop offset="1" stop-color="#020404"></stop></linearGradient></defs><g data-paper-data="{&quot;description&quot;:&quot;Logo for Aelly sister\n=====================\n\nThis logo was generated by MarkMaker at http://emblemmatic.org/markmaker/ and may be composed of elements designed by others.\n\nThe font is Old Standard TT Bold designed by Alexey Kryukov and released under the OFL license via Google Fonts: https://www.google.com/fonts/specimen/Old%20Standard%20TT. The font includes this copyright statement: Copyright (C) 2006-2008 Alexey Kryukov (alexios@thessalonica.org.ru)\n\nMarkMaker uses semantic data from the Princeton University WordNet database http://wordnet.princeton.edu and font descriptions from Google Fonts https://www.google.com/fonts.&quot;}" fill="none" fill-rule="nonzero" stroke="none" stroke-width="none" stroke-linecap="butt" stroke-linejoin="miter" stroke-miterlimit="10" stroke-dasharray="" stroke-dashoffset="0" font-family="none" font-weight="none" font-size="none" text-anchor="none" style="mix-blend-mode: normal"><path d="M50,250c0,-22.97951 89.54305,-41.60808 200,-41.60808c110.45695,0 200,18.62857 200,41.60808c0,22.97951 -89.54305,41.60808 -200,41.60808c-110.45695,0 -200,-18.62857 -200,-41.60808z" fill="none" stroke="#010303" stroke-width="3.5"></path><g data-paper-data="{&quot;elementType&quot;:&quot;logo&quot;}" fill="url(#color-1)" stroke="none" stroke-width="1"><g data-paper-data="{&quot;elementType&quot;:&quot;text&quot;}"><g data-paper-data="{&quot;baseline&quot;:73,&quot;elementType&quot;:&quot;row&quot;}"><g data-paper-data="{&quot;baselineProportion&quot;:1,&quot;fontSize&quot;:100,&quot;baseline&quot;:73,&quot;elementType&quot;:&quot;word&quot;}"><path d="M132.35294,261.28518l0.0113,-1.02302h1.08696c0.63939,0 1.20701,-0.25575 1.70285,-0.76726c0.49585,-0.51151 0.87554,-1.11893 1.13906,-1.82225l6.96348,-19.72509h1.34271l6.6129,20.68417c0.35031,1.08696 0.97304,1.63044 1.86818,1.63044h1.27877l-0.0113,1.02302h-11.22124l0.0113,-1.02302h2.30179c0.23444,0 0.43803,-0.10124 0.61077,-0.30371c0.17274,-0.20247 0.26064,-0.44224 0.2637,-0.71931c0.00259,-0.23444 -0.05793,-0.54348 -0.18157,-0.92711l-0.98911,-3.06906h-6.71357l-0.6929,1.95013c-0.24104,0.59676 -0.36426,1.14024 -0.36968,1.63044c-0.004,0.36232 0.14154,0.69267 0.43662,0.99105c0.29508,0.29838 0.69838,0.44757 1.20989,0.44757h1.50256l-0.0113,1.02302zM138.85861,254.06011h5.91433l-2.81207,-8.79157l-3.10226,8.79157" data-paper-data="{&quot;elementType&quot;:&quot;letter&quot;,&quot;baseline&quot;:73,&quot;baselineProportion&quot;:1,&quot;fontSize&quot;:100}"></path><path d="M157.03329,261.28518l0.0113,-1.02302h2.23786c0.29838,0 0.50144,-0.05328 0.60918,-0.15985c0.10774,-0.10656 0.16326,-0.30904 0.16656,-0.60742l0.21194,-19.18161c0.0033,-0.29838 -0.04775,-0.50085 -0.15314,-0.60742c-0.10539,-0.10656 -0.30727,-0.15985 -0.60565,-0.15985h-2.23786l0.0113,-1.02302h17.96678l0.10987,7.41689h-1.02302c-0.19806,-1.36403 -0.61089,-2.57886 -1.23851,-3.64451c-1.02408,-1.83291 -2.29273,-2.74936 -3.80594,-2.74936h-3.51663c-0.29838,0 -0.50144,0.05328 -0.60918,0.15985c-0.10774,0.10656 -0.16326,0.30904 -0.16656,0.60742l-0.09749,8.82354h1.63044c0.57545,0 1.11625,-0.23977 1.6224,-0.71931c0.50615,-0.47954 0.90147,-1.05499 1.18596,-1.72635c0.28449,-0.67136 0.43026,-1.32673 0.43733,-1.96612h1.02302l-0.11056,10.00641h-1.02302c0.00706,-0.63939 -0.12417,-1.30009 -0.3937,-1.9821c-0.26953,-0.68201 -0.65208,-1.26279 -1.14763,-1.74233c-0.49555,-0.47954 -1.03106,-0.71931 -1.6065,-0.71931h-1.63044l-0.10173,9.20718c-0.0033,0.29838 0.04775,0.50085 0.15314,0.60742c0.10539,0.10656 0.30727,0.15985 0.60565,0.15985h3.48466c0.61807,0 1.2005,-0.14919 1.74728,-0.44757c0.54678,-0.29838 1.01469,-0.69267 1.40374,-1.18287c0.38905,-0.4902 0.71404,-0.96974 0.97498,-1.43862c0.26094,-0.46888 0.47948,-0.95908 0.65564,-1.47059c0.13165,-0.34101 0.25914,-0.78858 0.38248,-1.34271c0.12334,-0.55414 0.20833,-1.01236 0.25496,-1.37468l0.06994,-0.54348h1.02302l-0.28931,8.82354z" data-paper-data="{&quot;elementType&quot;:&quot;letter&quot;,&quot;baseline&quot;:71.2,&quot;baselineProportion&quot;:1,&quot;fontSize&quot;:100}"></path><path d="M179.09214,261.28518l0.0113,-1.02302h2.23786c0.27707,0 0.47498,-0.06927 0.59373,-0.2078c0.11875,-0.13853 0.17978,-0.35699 0.18307,-0.65537l0.21088,-19.08571c0.0033,-0.29838 -0.04775,-0.50085 -0.15314,-0.60742c-0.10539,-0.10656 -0.30727,-0.15985 -0.60565,-0.15985h-2.23786l0.0113,-1.02302h10.7417l-0.0113,1.02302h-2.23786c-0.29838,0 -0.50144,0.05328 -0.60918,0.15985c-0.10774,0.10656 -0.16326,0.30904 -0.16656,0.60742l-0.21088,19.08571c-0.0033,0.29838 0.0529,0.51684 0.16859,0.65537c0.11569,0.13853 0.31207,0.2078 0.58914,0.2078h3.22891c0.4902,0 0.97127,-0.13853 1.44321,-0.4156c0.47195,-0.27707 0.88066,-0.61807 1.22614,-1.02302c0.34548,-0.40495 0.67036,-0.87383 0.97462,-1.40665c0.30427,-0.53282 0.5494,-1.01769 0.73538,-1.45461c0.18599,-0.43691 0.34516,-0.85784 0.47751,-1.26279c0.11033,-0.34101 0.2325,-0.78858 0.3665,-1.34271c0.134,-0.55414 0.24563,-1.01236 0.33488,-1.37468l0.13388,-0.54348h1.02302l-0.36455,9.84656z" data-paper-data="{&quot;elementType&quot;:&quot;letter&quot;,&quot;baseline&quot;:71.2,&quot;baselineProportion&quot;:1,&quot;fontSize&quot;:100}"></path><path d="M200.51161,261.28518l0.0113,-1.02302h2.23786c0.27707,0 0.47498,-0.06927 0.59373,-0.2078c0.11875,-0.13853 0.17978,-0.35699 0.18307,-0.65537l0.21088,-19.08571c0.0033,-0.29838 -0.04775,-0.50085 -0.15314,-0.60742c-0.10539,-0.10656 -0.30727,-0.15985 -0.60565,-0.15985h-2.23786l0.0113,-1.02302h10.7417l-0.0113,1.02302h-2.23786c-0.29838,0 -0.50144,0.05328 -0.60918,0.15985c-0.10774,0.10656 -0.16326,0.30904 -0.16656,0.60742l-0.21088,19.08571c-0.0033,0.29838 0.0529,0.51684 0.16859,0.65537c0.11569,0.13853 0.31207,0.2078 0.58914,0.2078h3.22891c0.4902,0 0.97127,-0.13853 1.44321,-0.4156c0.47195,-0.27707 0.88066,-0.61807 1.22614,-1.02302c0.34548,-0.40495 0.67036,-0.87383 0.97462,-1.40665c0.30427,-0.53282 0.5494,-1.01769 0.73538,-1.45461c0.18599,-0.43691 0.34516,-0.85784 0.47751,-1.26279c0.11033,-0.34101 0.2325,-0.78858 0.3665,-1.34271c0.134,-0.55414 0.24563,-1.01236 0.33488,-1.37468l0.13388,-0.54348h1.02302l-0.36455,9.84656z" data-paper-data="{&quot;elementType&quot;:&quot;letter&quot;,&quot;baseline&quot;:71.2,&quot;baselineProportion&quot;:1,&quot;fontSize&quot;:100}"></path><path d="M219.86949,239.54602l0.0113,-1.02302h10.03838l-0.0113,1.02302h-0.89514c-0.29838,0 -0.52334,0.10656 -0.67489,0.31969c-0.15155,0.21313 -0.22873,0.44757 -0.23156,0.70333c-0.00377,0.34101 0.05687,0.63939 0.18193,0.89514l4.11858,9.17521l3.02207,-7.32098c0.30592,-0.68201 0.46182,-1.28943 0.46771,-1.82225c0.00589,-0.53282 -0.12758,-0.99105 -0.40041,-1.37468c-0.27283,-0.38363 -0.70762,-0.57545 -1.30439,-0.57545h-0.89514l0.0113,-1.02302h7.9284l-0.0113,1.02302h-0.95908c-0.72464,0 -1.33459,0.22911 -1.82985,0.68734c-0.49526,0.45823 -0.86364,1.00703 -1.10515,1.64642l-4.43208,10.51792l-0.07842,7.0972c-0.0033,0.29838 0.04775,0.50085 0.15314,0.60742c0.10539,0.10656 0.30727,0.15985 0.60565,0.15985h2.04604l-0.0113,1.02302h-10.35807l0.0113,-1.02302h2.04604c0.29838,0 0.50144,-0.05328 0.60918,-0.15985c0.10774,-0.10656 0.16326,-0.30904 0.16656,-0.60742l0.07524,-6.80947l-5.30515,-11.73275c-0.24963,-0.55414 -0.51192,-0.92711 -0.78687,-1.11893c-0.27495,-0.19182 -0.63621,-0.28772 -1.08378,-0.28772z" data-paper-data="{&quot;elementType&quot;:&quot;letter&quot;,&quot;baseline&quot;:71.2,&quot;baselineProportion&quot;:1,&quot;fontSize&quot;:100}"></path></g><g data-paper-data="{&quot;baselineProportion&quot;:0.9681697612732095,&quot;fontSize&quot;:100,&quot;baseline&quot;:73,&quot;elementType&quot;:&quot;word&quot;}"><path d="M249.08525,251.50256h1.02302c0.19994,1.19352 0.52823,2.34442 0.98487,3.45269c0.45664,1.10827 0.98917,2.09932 1.59759,2.97315c0.60842,0.87383 1.32529,1.57715 2.1506,2.10998c0.82532,0.53282 1.67489,0.79923 2.54872,0.79923c0.74595,0 1.39161,-0.08525 1.93697,-0.25575c0.54536,-0.1705 0.97398,-0.38363 1.28584,-0.63939c0.31186,-0.25575 0.56026,-0.55414 0.74519,-0.89514c0.18493,-0.34101 0.30568,-0.6607 0.36226,-0.95908c0.05658,-0.29838 0.08652,-0.59676 0.08981,-0.89514c0.00612,-0.55414 -0.19082,-1.05499 -0.59082,-1.50256c-0.4,-0.44757 -0.95973,-0.9058 -1.67919,-1.37468l-6.7927,-4.41177c-2.37009,-1.53453 -3.54218,-3.474 -3.51628,-5.81842c0.01177,-1.06565 0.19264,-2.00341 0.54259,-2.8133c0.34996,-0.80989 0.83123,-1.44928 1.44383,-1.91816c0.6126,-0.46888 1.28251,-0.82055 2.00974,-1.05499c0.72723,-0.23444 1.50645,-0.35166 2.33765,-0.35166c1.4919,0 2.99923,0.53282 4.52199,1.59847c0.50727,0.38363 0.88878,0.57545 1.14454,0.57545c0.38363,0 0.62078,-0.2451 0.71145,-0.7353l0.20135,-0.86317h1.02302l0.22785,8.31203h-1.02302c-0.5718,-2.25917 -1.51016,-4.1347 -2.81507,-5.62661c-1.30492,-1.4919 -2.72464,-2.23786 -4.25917,-2.23786c-2.21654,0 -3.3347,0.89514 -3.35448,2.68543c-0.01342,1.21484 0.92146,2.44033 2.80465,3.67648l6.82431,4.44374c0.86747,0.57545 1.5567,1.36935 2.06768,2.38172c0.51098,1.01236 0.76058,2.05137 0.74881,3.11701c-0.00895,0.80989 -0.16685,1.59847 -0.47371,2.36573c-0.30686,0.76726 -0.74089,1.47059 -1.30209,2.10998c-0.5612,0.63939 -1.3128,1.1509 -2.25481,1.53453c-0.94201,0.38363 -1.99911,0.57545 -3.17132,0.57545c-1.76897,0 -3.22372,-0.46888 -4.36426,-1.40665c-0.46465,-0.38363 -0.80815,-0.63939 -1.03053,-0.76726c-0.22237,-0.12788 -0.42947,-0.19182 -0.62128,-0.19182c-0.46888,0 -0.74995,0.36232 -0.84321,1.08696l-0.17115,1.02302h-0.99105z" data-paper-data="{&quot;elementType&quot;:&quot;letter&quot;,&quot;baseline&quot;:73,&quot;baselineProportion&quot;:0.9759358288770054,&quot;fontSize&quot;:100}"></path><path d="M267.90302,261.28518l0.0113,-1.02302h2.23786c0.29838,0 0.50144,-0.05328 0.60918,-0.15985c0.10774,-0.10656 0.16326,-0.30904 0.16656,-0.60742l0.21194,-19.18161c0.0033,-0.29838 -0.04775,-0.50085 -0.15314,-0.60742c-0.10539,-0.10656 -0.30727,-0.15985 -0.60565,-0.15985h-2.23786l0.0113,-1.02302h10.7417l-0.0113,1.02302h-2.23786c-0.29838,0 -0.50144,0.05328 -0.60918,0.15985c-0.10774,0.10656 -0.16326,0.30904 -0.16656,0.60742l-0.21194,19.18161c-0.0033,0.29838 0.04775,0.50085 0.15314,0.60742c0.10539,0.10656 0.30727,0.15985 0.60565,0.15985h2.23786l-0.0113,1.02302z" data-paper-data="{&quot;elementType&quot;:&quot;letter&quot;,&quot;baseline&quot;:71.2,&quot;baselineProportion&quot;:1,&quot;fontSize&quot;:100}"></path><path d="M282.97277,251.50256h1.02302c0.19994,1.19352 0.52823,2.34442 0.98487,3.45269c0.45664,1.10827 0.98917,2.09932 1.59759,2.97315c0.60842,0.87383 1.32529,1.57715 2.1506,2.10998c0.82532,0.53282 1.67489,0.79923 2.54872,0.79923c0.74595,0 1.39161,-0.08525 1.93697,-0.25575c0.54536,-0.1705 0.97398,-0.38363 1.28584,-0.63939c0.31186,-0.25575 0.56026,-0.55414 0.74519,-0.89514c0.18493,-0.34101 0.30568,-0.6607 0.36226,-0.95908c0.05658,-0.29838 0.08652,-0.59676 0.08981,-0.89514c0.00612,-0.55414 -0.19082,-1.05499 -0.59082,-1.50256c-0.4,-0.44757 -0.95973,-0.9058 -1.67919,-1.37468l-6.7927,-4.41177c-2.37009,-1.53453 -3.54218,-3.474 -3.51628,-5.81842c0.01177,-1.06565 0.19264,-2.00341 0.54259,-2.8133c0.34996,-0.80989 0.83123,-1.44928 1.44383,-1.91816c0.6126,-0.46888 1.28251,-0.82055 2.00974,-1.05499c0.72723,-0.23444 1.50645,-0.35166 2.33765,-0.35166c1.4919,0 2.99923,0.53282 4.52199,1.59847c0.50727,0.38363 0.88878,0.57545 1.14454,0.57545c0.38363,0 0.62078,-0.2451 0.71145,-0.7353l0.20135,-0.86317h1.02302l0.22785,8.31203h-1.02302c-0.5718,-2.25917 -1.51016,-4.1347 -2.81507,-5.62661c-1.30492,-1.4919 -2.72464,-2.23786 -4.25917,-2.23786c-2.21654,0 -3.3347,0.89514 -3.35448,2.68543c-0.01342,1.21484 0.92146,2.44033 2.80465,3.67648l6.82431,4.44374c0.86747,0.57545 1.5567,1.36935 2.06768,2.38172c0.51098,1.01236 0.76058,2.05137 0.74881,3.11701c-0.00895,0.80989 -0.16685,1.59847 -0.47371,2.36573c-0.30686,0.76726 -0.74089,1.47059 -1.30209,2.10998c-0.5612,0.63939 -1.3128,1.1509 -2.25481,1.53453c-0.94201,0.38363 -1.99911,0.57545 -3.17132,0.57545c-1.76897,0 -3.22372,-0.46888 -4.36426,-1.40665c-0.46465,-0.38363 -0.80815,-0.63939 -1.03053,-0.76726c-0.22237,-0.12788 -0.42947,-0.19182 -0.62128,-0.19182c-0.46888,0 -0.74995,0.36232 -0.84321,1.08696l-0.17115,1.02302h-0.99105z" data-paper-data="{&quot;elementType&quot;:&quot;letter&quot;,&quot;baseline&quot;:73,&quot;baselineProportion&quot;:0.9759358288770054,&quot;fontSize&quot;:100}"></path><path d="M301.87284,248.04987l0.36102,-9.52687h19.18161l0.15049,9.52687h-1.02302c-0.07725,-0.72464 -0.28996,-1.72635 -0.63815,-3.00512c-0.26671,-0.93777 -0.60344,-1.80627 -1.01022,-2.6055c-0.40677,-0.79923 -0.92673,-1.48125 -1.55988,-2.04604c-0.63315,-0.56479 -1.29073,-0.84719 -1.97274,-0.84719c-0.36232,0 -0.6511,0.09591 -0.86635,0.28772c-0.21525,0.19182 -0.32476,0.45823 -0.32852,0.79923l-0.20841,18.86192c-0.0033,0.29838 0.04775,0.50085 0.15314,0.60742c0.10539,0.10656 0.30727,0.15985 0.60565,0.15985h2.55755l-0.0113,1.02302h-11.38109l0.0113,-1.02302h2.55755c0.29838,0 0.50144,-0.05328 0.60918,-0.15985c0.10774,-0.10656 0.16326,-0.30904 0.16656,-0.60742l0.20841,-18.86192c0.00377,-0.34101 -0.09985,-0.60742 -0.31086,-0.79923c-0.21101,-0.19182 -0.49767,-0.28772 -0.85999,-0.28772c-0.68201,0 -1.34583,0.2824 -1.99146,0.84719c-0.64563,0.56479 -1.18066,1.2468 -1.60509,2.04604c-0.42443,0.79923 -0.78036,1.66773 -1.06779,2.6055c-0.15531,0.55414 -0.29441,1.08696 -0.41728,1.59847c-0.12287,0.51151 -0.19614,0.87383 -0.21981,1.08696l-0.06747,0.31969z" data-paper-data="{&quot;elementType&quot;:&quot;letter&quot;,&quot;baseline&quot;:71.2,&quot;baselineProportion&quot;:1,&quot;fontSize&quot;:100}"></path><path d="M324.6806,261.28518l0.0113,-1.02302h2.23786c0.29838,0 0.50144,-0.05328 0.60918,-0.15985c0.10774,-0.10656 0.16326,-0.30904 0.16656,-0.60742l0.21194,-19.18161c0.0033,-0.29838 -0.04775,-0.50085 -0.15314,-0.60742c-0.10539,-0.10656 -0.30727,-0.15985 -0.60565,-0.15985h-2.23786l0.0113,-1.02302h17.96678l0.10987,7.41689h-1.02302c-0.19806,-1.36403 -0.61089,-2.57886 -1.23851,-3.64451c-1.02408,-1.83291 -2.29273,-2.74936 -3.80594,-2.74936h-3.51663c-0.29838,0 -0.50144,0.05328 -0.60918,0.15985c-0.10774,0.10656 -0.16326,0.30904 -0.16656,0.60742l-0.09749,8.82354h1.63044c0.57545,0 1.11625,-0.23977 1.6224,-0.71931c0.50615,-0.47954 0.90147,-1.05499 1.18596,-1.72635c0.28449,-0.67136 0.43026,-1.32673 0.43733,-1.96612h1.02302l-0.11056,10.00641h-1.02302c0.00706,-0.63939 -0.12417,-1.30009 -0.3937,-1.9821c-0.26953,-0.68201 -0.65208,-1.26279 -1.14763,-1.74233c-0.49555,-0.47954 -1.03106,-0.71931 -1.6065,-0.71931h-1.63044l-0.10173,9.20718c-0.0033,0.29838 0.04775,0.50085 0.15314,0.60742c0.10539,0.10656 0.30727,0.15985 0.60565,0.15985h3.48466c0.61807,0 1.2005,-0.14919 1.74728,-0.44757c0.54678,-0.29838 1.01469,-0.69267 1.40374,-1.18287c0.38905,-0.4902 0.71404,-0.96974 0.97498,-1.43862c0.26094,-0.46888 0.47948,-0.95908 0.65564,-1.47059c0.13165,-0.34101 0.25914,-0.78858 0.38248,-1.34271c0.12334,-0.55414 0.20833,-1.01236 0.25496,-1.37468l0.06994,-0.54348h1.02302l-0.28931,8.82354z" data-paper-data="{&quot;elementType&quot;:&quot;letter&quot;,&quot;baseline&quot;:71.2,&quot;baselineProportion&quot;:1,&quot;fontSize&quot;:100}"></path><path d="M346.73946,261.28518l0.0113,-1.02302h2.23786c0.29838,0 0.50144,-0.05328 0.60918,-0.15985c0.10774,-0.10656 0.16326,-0.30904 0.16656,-0.60742l0.21194,-19.18161c0.0033,-0.29838 -0.04775,-0.50085 -0.15314,-0.60742c-0.10539,-0.10656 -0.30727,-0.15985 -0.60565,-0.15985h-2.23786l0.0113,-1.02302h10.35807c2.30179,0 4.15048,0.50085 5.54607,1.50256c1.39558,1.00171 2.08372,2.37639 2.06441,4.12405c-0.01625,1.47059 -0.57262,2.63747 -1.66912,3.50064c-1.0965,0.86317 -2.51963,1.39067 -4.26941,1.58248l-0.00247,0.22379c0.80824,0.14919 1.504,0.35166 2.08728,0.60742c0.58328,0.25575 1.11227,0.60209 1.58699,1.039c0.47471,0.43691 0.83594,1.01769 1.08369,1.74233c0.24775,0.72464 0.36632,1.5665 0.35573,2.52558l-0.03921,3.5486c-0.00989,0.89514 0.28354,1.34271 0.88031,1.34271c0.55414,0 0.96414,-0.45823 1.23002,-1.37468c0.26588,-0.91645 0.40612,-2.03538 0.42072,-3.35678h1.02302c-0.00871,0.78858 -0.04845,1.4919 -0.11922,2.10998c-0.07077,0.61807 -0.19452,1.20951 -0.37127,1.7743c-0.17674,0.56479 -0.40577,1.039 -0.68708,1.42264c-0.28131,0.38363 -0.65225,0.68201 -1.11283,0.89514c-0.46058,0.21313 -0.98925,0.31969 -1.58602,0.31969c-1.36403,0 -2.44118,-0.40495 -3.23147,-1.21484c-0.79029,-0.80989 -1.17671,-2.00341 -1.15929,-3.58057l0.0438,-3.9642c0.0113,-1.02302 -0.22959,-1.88619 -0.72267,-2.58952c-0.49308,-0.70333 -1.26179,-1.05499 -2.30612,-1.05499h-1.79028l-0.1088,9.84656c-0.0033,0.29838 0.04775,0.50085 0.15314,0.60742c0.10539,0.10656 0.30727,0.15985 0.60565,0.15985h2.8133l-0.0113,1.02302zM354.61592,248.62532h2.14195c0.57545,0 1.06694,-0.11722 1.47448,-0.35166c0.40754,-0.23444 0.72567,-0.57545 0.9544,-1.02302c0.22873,-0.44757 0.39399,-0.93777 0.49579,-1.47059c0.1018,-0.53282 0.1567,-1.16155 0.1647,-1.88619c0.01601,-1.44928 -0.19576,-2.53624 -0.63533,-3.26087c-0.43956,-0.72464 -1.22414,-1.08696 -2.35372,-1.08696h-1.37468c-0.29838,0 -0.50144,0.05328 -0.60918,0.15985c-0.10774,0.10656 -0.16326,0.30904 -0.16656,0.60742l-0.09184,8.31203" data-paper-data="{&quot;elementType&quot;:&quot;letter&quot;,&quot;baseline&quot;:71.2,&quot;baselineProportion&quot;:0.967391304347826,&quot;fontSize&quot;:100}"></path></g></g></g></g></g></svg>