<svg version="1.1" xmlns="http://www.w3.org/2000/svg" xmlns:xlink="http://www.w3.org/1999/xlink" width="500" height="500"><g data-paper-data="{&quot;description&quot;:&quot;Logo for Aelly sister\n=====================\n\nThis logo was generated by MarkMaker at http://emblemmatic.org/markmaker/ and may be composed of elements designed by others.\n\nThe font is Libre Caslon Text Bold designed by Impallari Type and released under the OFL license via Google Fonts: https://www.google.com/fonts/specimen/Libre%20Caslon%20Text. The font includes this copyright statement: Copyright (c) 2012, Pablo Impallari (www.impallari.com|impallari@gmail.com), Rodrigo Fuenzalida (www.rfuenzalida.com|hello@rfuenzalida.com), with Reserved Font Name Libre Caslon.\n\nMarkMaker uses semantic data from the Princeton University WordNet database http://wordnet.princeton.edu and font descriptions from Google Fonts https://www.google.com/fonts.&quot;}" fill="#030303" fill-rule="nonzero" stroke="none" stroke-width="1" stroke-linecap="butt" stroke-linejoin="miter" stroke-miterlimit="10" stroke-dasharray="" stroke-dashoffset="0" font-family="none" font-weight="none" font-size="none" text-anchor="none" style="mix-blend-mode: normal"><g data-paper-data="{&quot;elementType&quot;:&quot;logo&quot;}"><g data-paper-data="{&quot;elementType&quot;:&quot;text&quot;}"><g data-paper-data="{&quot;baseline&quot;:83,&quot;elementType&quot;:&quot;row&quot;}"><g data-paper-data="{&quot;baselineProportion&quot;:0.7614678899082569,&quot;fontSize&quot;:100,&quot;baseline&quot;:83,&quot;elementType&quot;:&quot;word&quot;}"><path d="M75.76328,253.51317h-12.54705l-1.61718,4.23812c-0.40894,1.11529 -0.61341,1.98894 -0.61341,2.62094c0,0.96659 0.46471,1.70082 1.39412,2.2027c0.92941,0.50188 2.56517,0.92012 4.90729,1.25471v2.06329h-17.28705v-2.06329c1.30118,-0.22306 2.35141,-0.45541 3.1507,-0.69706c0.79929,-0.24165 1.46847,-0.58553 2.00753,-1.03165c0.53906,-0.44612 0.99447,-1.02235 1.36623,-1.7287c0.37176,-0.70635 0.78071,-1.61718 1.22682,-2.73247l10.53952,-26.87857l-2.56517,-5.74376l8.30894,-3.17859l15.9487,38.58915c0.26024,0.632 0.52976,1.15247 0.80859,1.56141c0.27882,0.40894 0.632,0.74353 1.05953,1.00376c0.42753,0.26024 0.97588,0.44612 1.64506,0.55765c0.66918,0.11153 1.50565,0.20447 2.50941,0.27882v2.06329h-22.97505v-2.06329c2.0447,-0.07435 3.4667,-0.25094 4.266,-0.52976c0.79929,-0.27882 1.19894,-0.79 1.19894,-1.53353c0,-0.59482 -0.16729,-1.33835 -0.50188,-2.23059l-2.23059,-6.02258M69.51764,237.11836l-5.07459,13.21623h10.14917l-4.85153,-13.21623z" data-paper-data="{&quot;elementType&quot;:&quot;letter&quot;,&quot;baseline&quot;:79,&quot;baselineProportion&quot;:1,&quot;fontSize&quot;:100}"></path><path d="M133.31242,249.72118h-20.29834c0.03718,7.32376 2.95553,10.98564 8.75505,10.98564c1.63576,0 3.29012,-0.30671 4.96306,-0.92012c1.67294,-0.61341 3.04847,-1.53353 4.12659,-2.76035l0.39035,-0.44612l1.56141,1.33835l-0.27882,0.66918c-1.04094,2.528 -2.77894,4.47047 -5.214,5.82741c-2.43506,1.35694 -5.17682,2.03541 -8.22529,2.03541c-2.30494,0 -4.40541,-0.36247 -6.30141,-1.08741c-1.896,-0.72494 -3.51317,-1.738 -4.85153,-3.03917c-1.33835,-1.30118 -2.37,-2.86259 -3.09494,-4.68423c-0.72494,-1.82165 -1.08741,-3.84776 -1.08741,-6.07835c0,-2.34212 0.40894,-4.47976 1.22682,-6.41294c0.81788,-1.93318 1.96106,-3.59682 3.42953,-4.99094c1.46847,-1.39412 3.22506,-2.47223 5.26976,-3.23435c2.0447,-0.76212 4.31247,-1.14318 6.80329,-1.14318c4.27529,0 7.51894,1.14318 9.73094,3.42953c2.212,2.28635 3.39235,5.6787 3.54106,10.17705l-0.44612,0.33459M119.76161,238.62401c-1.93318,0 -3.45741,0.72494 -4.5727,2.17482c-1.11529,1.44988 -1.80306,3.55035 -2.06329,6.30141l11.37599,-0.44612c0.07435,-0.18588 0.13012,-0.46471 0.16729,-0.83647c0.03718,-0.37176 0.05576,-0.79929 0.05576,-1.28259c0,-3.9407 -1.65435,-5.91106 -4.96306,-5.91106z" data-paper-data="{&quot;elementType&quot;:&quot;letter&quot;,&quot;baseline&quot;:54,&quot;baselineProportion&quot;:0.9818181818181818,&quot;fontSize&quot;:100}"></path><path d="M162.25429,263.94117v1.95176h-17.8447v-1.95176l4.74,-1.11529v-37.69692l-4.74,-1.50565v-1.33835l12.21246,-2.6767h1.17106v43.21762z" data-paper-data="{&quot;elementType&quot;:&quot;letter&quot;,&quot;baseline&quot;:83,&quot;baselineProportion&quot;:1,&quot;fontSize&quot;:100}"></path><path d="M190.13662,263.94117v1.95176h-17.8447v-1.95176l4.74,-1.11529v-37.69692l-4.74,-1.50565v-1.33835l12.21246,-2.6767h1.17106v43.21762z" data-paper-data="{&quot;elementType&quot;:&quot;letter&quot;,&quot;baseline&quot;:83,&quot;baselineProportion&quot;:1,&quot;fontSize&quot;:100}"></path><path d="M219.58037,256.35717l5.63223,-13.66234c0.18588,-0.44612 0.316,-0.81788 0.39035,-1.11529c0.07435,-0.29741 0.11153,-0.57623 0.11153,-0.83647c0,-1.48706 -1.48706,-2.30494 -4.46117,-2.45365v-1.95176h13.43929v1.95176c-1.04094,0.18588 -1.8867,0.39035 -2.53729,0.61341c-0.65059,0.22306 -1.18965,0.50188 -1.61718,0.83647c-0.42753,0.33459 -0.79,0.74353 -1.08741,1.22682c-0.29741,0.48329 -0.59482,1.07812 -0.89223,1.78447l-12.88164,31.00516c-1.00376,2.41647 -2.212,4.14517 -3.6247,5.18611c-1.41271,0.96659 -3.25294,1.44988 -5.5207,1.44988c-1.85882,0 -3.42023,-0.39965 -4.68423,-1.19894c-1.264,-0.79929 -1.896,-1.99823 -1.896,-3.59682c0,-1.07812 0.35318,-1.93318 1.05953,-2.56517c0.70635,-0.632 1.54282,-0.948 2.50941,-0.948c0.85506,0 1.59859,0.23235 2.23059,0.69706c0.632,0.46471 1.09671,1.18035 1.39412,2.14694c0.29741,0.89223 0.55765,1.46847 0.78071,1.7287c0.22306,0.26024 0.59482,0.39035 1.11529,0.39035c0.632,0 1.27329,-0.32529 1.92388,-0.97588c0.65059,-0.65059 1.18035,-1.55212 1.58929,-2.70459l2.23059,-5.91106l-11.93364,-26.93434c-0.29741,-0.70635 -0.76212,-1.21753 -1.39412,-1.53353c-0.632,-0.316 -1.65435,-0.54835 -3.06706,-0.69706v-1.95176h18.17928v1.95176c-1.37553,0.11153 -2.37929,0.28812 -3.01129,0.52976c-0.632,0.24165 -0.948,0.65988 -0.948,1.25471c0,0.37176 0.07435,0.70635 0.22306,1.00376l6.4687,15.27952z" data-paper-data="{&quot;elementType&quot;:&quot;letter&quot;,&quot;baseline&quot;:53,&quot;baselineProportion&quot;:0.6708860759493671,&quot;fontSize&quot;:100}"></path></g><g data-paper-data="{&quot;baselineProportion&quot;:0.9873417721518988,&quot;fontSize&quot;:100,&quot;baseline&quot;:78,&quot;elementType&quot;:&quot;word&quot;}"><path d="M268.98787,235.78001c1.41271,0 2.78823,0.08365 4.12659,0.25094c1.33835,0.16729 2.41647,0.39965 3.23435,0.69706v7.75129h-2.17482c-0.52047,-3.9407 -2.37929,-5.91106 -5.57647,-5.91106c-1.30118,0 -2.33282,0.30671 -3.09494,0.92012c-0.76212,0.61341 -1.14318,1.422 -1.14318,2.42576c0,0.96659 0.33459,1.75659 1.00376,2.37c0.66918,0.61341 1.49635,1.18965 2.48153,1.7287c0.98518,0.53906 2.06329,1.07812 3.23435,1.61718c1.17106,0.53906 2.24918,1.20823 3.23435,2.00753c0.98518,0.79929 1.81235,1.77518 2.48153,2.92765c0.66918,1.15247 1.00376,2.60235 1.00376,4.34964c0,3.01129 -1.05953,5.35341 -3.17859,7.02635c-2.11906,1.67294 -5.09317,2.50941 -8.92235,2.50941c-1.41271,0 -2.91835,-0.10224 -4.51694,-0.30671c-1.59859,-0.20447 -2.9927,-0.49259 -4.18235,-0.86435l-0.33459,-9.08964h2.39788c0.18588,2.45365 0.82718,4.31247 1.92388,5.57647c1.09671,1.264 2.61165,1.896 4.54482,1.896c1.41271,0 2.55588,-0.37176 3.42953,-1.11529c0.87365,-0.74353 1.31047,-1.71012 1.31047,-2.89976c0,-1.00376 -0.33459,-1.84953 -1.00376,-2.53729c-0.66918,-0.68776 -1.50565,-1.31047 -2.50941,-1.86812c-1.00376,-0.55765 -2.09118,-1.12459 -3.26223,-1.70082c-1.17106,-0.57623 -2.25847,-1.264 -3.26223,-2.06329c-1.00376,-0.79929 -1.84023,-1.75659 -2.50941,-2.87188c-0.66918,-1.11529 -1.00376,-2.528 -1.00376,-4.23812c0,-5.72517 4.08941,-8.58776 12.26823,-8.58776z" data-paper-data="{&quot;elementType&quot;:&quot;letter&quot;,&quot;baseline&quot;:54,&quot;baselineProportion&quot;:0.9818181818181818,&quot;fontSize&quot;:100}"></path><path d="M307.24244,263.94117v1.95176h-17.8447v-1.95176l4.74,-1.11529v-21.52516l-4.74,-1.50565v-1.33835l12.21246,-2.6767h1.17106v27.04587zM293.58009,227.02495c0,-1.22682 0.41824,-2.30494 1.25471,-3.23435c0.83647,-0.92941 2.01682,-1.39412 3.54106,-1.39412c1.56141,0 2.77894,0.46471 3.65259,1.39412c0.87365,0.92941 1.31047,2.00753 1.31047,3.23435c0,1.15247 -0.41824,2.2027 -1.25471,3.1507c-0.83647,0.948 -2.07259,1.422 -3.70835,1.422c-1.56141,0 -2.75106,-0.474 -3.56894,-1.422c-0.81788,-0.948 -1.22682,-1.99823 -1.22682,-3.1507" data-paper-data="{&quot;elementType&quot;:&quot;letter&quot;,&quot;baseline&quot;:78,&quot;baselineProportion&quot;:1,&quot;fontSize&quot;:100}"></path><path d="M331.27701,235.78001c1.41271,0 2.78823,0.08365 4.12659,0.25094c1.33835,0.16729 2.41647,0.39965 3.23435,0.69706v7.75129h-2.17482c-0.52047,-3.9407 -2.37929,-5.91106 -5.57647,-5.91106c-1.30118,0 -2.33282,0.30671 -3.09494,0.92012c-0.76212,0.61341 -1.14318,1.422 -1.14318,2.42576c0,0.96659 0.33459,1.75659 1.00376,2.37c0.66918,0.61341 1.49635,1.18965 2.48153,1.7287c0.98518,0.53906 2.06329,1.07812 3.23435,1.61718c1.17106,0.53906 2.24918,1.20823 3.23435,2.00753c0.98518,0.79929 1.81235,1.77518 2.48153,2.92765c0.66918,1.15247 1.00376,2.60235 1.00376,4.34964c0,3.01129 -1.05953,5.35341 -3.17859,7.02635c-2.11906,1.67294 -5.09317,2.50941 -8.92235,2.50941c-1.41271,0 -2.91835,-0.10224 -4.51694,-0.30671c-1.59859,-0.20447 -2.9927,-0.49259 -4.18235,-0.86435l-0.33459,-9.08964h2.39788c0.18588,2.45365 0.82718,4.31247 1.92388,5.57647c1.09671,1.264 2.61165,1.896 4.54482,1.896c1.41271,0 2.55588,-0.37176 3.42953,-1.11529c0.87365,-0.74353 1.31047,-1.71012 1.31047,-2.89976c0,-1.00376 -0.33459,-1.84953 -1.00376,-2.53729c-0.66918,-0.68776 -1.50565,-1.31047 -2.50941,-1.86812c-1.00376,-0.55765 -2.09118,-1.12459 -3.26223,-1.70082c-1.17106,-0.57623 -2.25847,-1.264 -3.26223,-2.06329c-1.00376,-0.79929 -1.84023,-1.75659 -2.50941,-2.87188c-0.66918,-1.11529 -1.00376,-2.528 -1.00376,-4.23812c0,-5.72517 4.08941,-8.58776 12.26823,-8.58776z" data-paper-data="{&quot;elementType&quot;:&quot;letter&quot;,&quot;baseline&quot;:54,&quot;baselineProportion&quot;:0.9818181818181818,&quot;fontSize&quot;:100}"></path><path d="M363.56476,266.45058c-1.11529,0 -2.19341,-0.13012 -3.23435,-0.39035c-1.04094,-0.26024 -1.91459,-0.65059 -2.62094,-1.17106c-0.85506,-0.632 -1.422,-1.46847 -1.70082,-2.50941c-0.27882,-1.04094 -0.41824,-2.32353 -0.41824,-3.84776v-19.40611h-3.95929l-0.33459,-1.7287l11.2087,-8.53199l1.7287,0.27882v7.19364h8.64352l-0.83647,2.78823h-7.80705v17.51011c0,1.37553 0.03718,2.34212 0.11153,2.89976c0.07435,0.55765 0.22306,1.00376 0.44612,1.33835c0.632,1.04094 1.61718,1.56141 2.95553,1.56141c0.632,0 1.23612,-0.11153 1.81235,-0.33459c0.57623,-0.22306 1.12459,-0.632 1.64506,-1.22682l1.28259,1.84023c-0.96659,1.22682 -2.22129,2.15623 -3.76412,2.78823c-1.54282,0.632 -3.26223,0.948 -5.15823,0.948z" data-paper-data="{&quot;elementType&quot;:&quot;letter&quot;,&quot;baseline&quot;:66.4,&quot;baselineProportion&quot;:0.9851632047477745,&quot;fontSize&quot;:100}"></path><path d="M412.5819,249.72118h-20.29834c0.03718,7.32376 2.95553,10.98564 8.75505,10.98564c1.63576,0 3.29012,-0.30671 4.96306,-0.92012c1.67294,-0.61341 3.04847,-1.53353 4.12659,-2.76035l0.39035,-0.44612l1.56141,1.33835l-0.27882,0.66918c-1.04094,2.528 -2.77894,4.47047 -5.214,5.82741c-2.43506,1.35694 -5.17682,2.03541 -8.22529,2.03541c-2.30494,0 -4.40541,-0.36247 -6.30141,-1.08741c-1.896,-0.72494 -3.51317,-1.738 -4.85153,-3.03917c-1.33835,-1.30118 -2.37,-2.86259 -3.09494,-4.68423c-0.72494,-1.82165 -1.08741,-3.84776 -1.08741,-6.07835c0,-2.34212 0.40894,-4.47976 1.22682,-6.41294c0.81788,-1.93318 1.96106,-3.59682 3.42953,-4.99094c1.46847,-1.39412 3.22506,-2.47223 5.26976,-3.23435c2.0447,-0.76212 4.31247,-1.14318 6.80329,-1.14318c4.27529,0 7.51894,1.14318 9.73094,3.42953c2.212,2.28635 3.39235,5.6787 3.54106,10.17705l-0.44612,0.33459M399.03109,238.62401c-1.93318,0 -3.45741,0.72494 -4.5727,2.17482c-1.11529,1.44988 -1.80306,3.55035 -2.06329,6.30141l11.37599,-0.44612c0.07435,-0.18588 0.13012,-0.46471 0.16729,-0.83647c0.03718,-0.37176 0.05576,-0.79929 0.05576,-1.28259c0,-3.9407 -1.65435,-5.91106 -4.96306,-5.91106z" data-paper-data="{&quot;elementType&quot;:&quot;letter&quot;,&quot;baseline&quot;:54,&quot;baselineProportion&quot;:0.9818181818181818,&quot;fontSize&quot;:100}"></path><path d="M444.36777,263.94117v1.95176h-20.13105v-1.95176l4.18235,-1.11529v-21.4694l-4.23812,-1.56141v-1.33835l11.43176,-2.6767h1.17106v5.07459c2.89976,-3.42023 5.70658,-5.13035 8.42047,-5.13035c1.41271,0 2.56517,0.39965 3.45741,1.19894c0.89223,0.79929 1.33835,1.79376 1.33835,2.98341c0,1.00376 -0.316,1.90529 -0.948,2.70459c-0.632,0.79929 -1.50565,1.19894 -2.62094,1.19894c-0.52047,0 -0.98518,-0.09294 -1.39412,-0.27882c-0.40894,-0.18588 -0.81788,-0.44612 -1.22682,-0.78071c-0.52047,-0.40894 -0.98518,-0.73423 -1.39412,-0.97588c-0.40894,-0.24165 -0.81788,-0.36247 -1.22682,-0.36247c-0.29741,0 -0.71565,0.09294 -1.25471,0.27882c-0.53906,0.18588 -1.06882,0.55765 -1.58929,1.11529c-0.48329,0.52047 -0.79929,0.97588 -0.948,1.36623c-0.14871,0.39035 -0.26024,0.75282 -0.33459,1.08741v17.56587z" data-paper-data="{&quot;elementType&quot;:&quot;letter&quot;,&quot;baseline&quot;:54.1,&quot;baselineProportion&quot;:1,&quot;fontSize&quot;:100}"></path></g></g></g></g></g></svg>