<svg version="1.1" xmlns="http://www.w3.org/2000/svg" xmlns:xlink="http://www.w3.org/1999/xlink" width="500" height="500"><defs><linearGradient x1="83.33333" y1="234.76103" x2="83.33333" y2="265.23897" gradientUnits="userSpaceOnUse" id="color-1"><stop offset="0" stop-color="#0c1b1b"></stop><stop offset="1" stop-color="#163131"></stop></linearGradient></defs><g data-paper-data="{&quot;description&quot;:&quot;Logo for Aelly sister\n=====================\n\nThis logo was generated by MarkMaker at http://emblemmatic.org/markmaker/ and may be composed of elements designed by others.\n\nThe font is Fanwood Text Italic designed by Barry Schwartz and released under the OFL license via Google Fonts: https://www.google.com/fonts/specimen/Fanwood%20Text. The font includes this copyright statement: Copyright (c) 2011, Barry Schwartz (chemoelectric@chemoelectric.org)\n\nMarkMaker uses semantic data from the Princeton University WordNet database http://wordnet.princeton.edu and font descriptions from Google Fonts https://www.google.com/fonts.&quot;}" fill="none" fill-rule="nonzero" stroke="none" stroke-width="none" stroke-linecap="butt" stroke-linejoin="miter" stroke-miterlimit="10" stroke-dasharray="" stroke-dashoffset="0" font-family="none" font-weight="none" font-size="none" text-anchor="none" style="mix-blend-mode: normal"><path d="M50,298.5723v-97.1446h400v97.1446z" fill="none" stroke="#112626" stroke-width="3.5"></path><g data-paper-data="{&quot;elementType&quot;:&quot;logo&quot;}" fill="url(#color-1)" stroke="none" stroke-width="1"><g data-paper-data="{&quot;elementType&quot;:&quot;text&quot;}"><g data-paper-data="{&quot;baseline&quot;:69.3115234375,&quot;elementType&quot;:&quot;row&quot;}"><g data-paper-data="{&quot;baselineProportion&quot;:0.9912709497206704,&quot;fontSize&quot;:100,&quot;baseline&quot;:69.3115234375,&quot;elementType&quot;:&quot;word&quot;}"><path d="M87.19512,264.67937l-3.17968,0.13642c-0.29383,0 -0.48097,-0.05597 -0.56143,-0.1679c-0.08045,-0.11194 -0.12068,-0.33406 -0.12068,-0.66637c0,-0.33231 0.05772,-0.53519 0.17315,-0.60865c0.11543,-0.07346 0.35854,-0.11019 0.72933,-0.11019h1.37471c0.22387,-0.26585 1.33274,-2.11629 3.32659,-5.55132c6.37334,-10.94872 10.24912,-17.4375 11.62733,-19.46633c0.14692,-0.21688 0.3568,-0.45824 0.62964,-0.72408c0.6926,-0.6996 1.17533,-1.31175 1.44817,-1.83645c0.27284,-0.5247 0.55618,-0.78705 0.85001,-0.78705c0.39178,0 0.62264,0.2606 0.6926,0.7818c0.06996,0.5212 0.31482,2.05332 0.73458,4.59636c0.41976,2.54304 0.80979,4.88845 1.17008,7.03621c0.36029,2.14777 0.75732,4.48093 1.19107,6.99949c0.95145,5.45687 1.54961,8.44066 1.79447,8.95137h1.76299c0.24486,0 0.40577,0.04897 0.48272,0.14692c0.07696,0.09794 0.11543,0.29733 0.11543,0.59816c0,0.30083 -0.03848,0.51071 -0.11543,0.62964c-0.07696,0.11893 -0.23786,0.1784 -0.48272,0.1784l-3.87228,-0.13642l-4.80624,0.13642c-0.29383,0 -0.48272,-0.05772 -0.56667,-0.17315c-0.08395,-0.11543 -0.12593,-0.33756 -0.12593,-0.66637c0,-0.32881 0.05772,-0.52995 0.17315,-0.6034c0.11543,-0.07346 0.35854,-0.11019 0.72933,-0.11019h2.41362v-0.3463c0,-0.67161 -0.19589,-2.39088 -0.58766,-5.15779c-0.39178,-2.76691 -0.6034,-4.28504 -0.63489,-4.55439c-0.03148,-0.26935 -0.06821,-0.43725 -0.11019,-0.50371c-0.04198,-0.06646 -0.15741,-0.09969 -0.3463,-0.09969h-8.30074c-0.25885,0 -0.43025,0.02623 -0.51421,0.0787c-0.08395,0.05247 -0.1714,0.16266 -0.26235,0.33056c-0.09095,0.1679 -0.40927,0.76256 -0.95495,1.78398c-0.54569,1.02141 -0.99518,1.86618 -1.34848,2.5343c-0.3533,0.66812 -0.7783,1.4744 -1.27502,2.41886c-1.02141,1.95188 -1.58809,3.12371 -1.70002,3.51548h2.83337c0.24486,0 0.40577,0.04897 0.48272,0.14692c0.07696,0.09794 0.11543,0.29733 0.11543,0.59816c0,0.30083 -0.03848,0.51071 -0.11543,0.62964c-0.07696,0.11893 -0.23786,0.1784 -0.48272,0.1784l-4.38648,-0.13642M99.94006,242.28522c0,0 -0.223,0.39352 -0.66899,1.18057c-0.44599,0.78705 -1.19369,2.10579 -2.24309,3.95623c-1.0494,1.85044 -1.6598,2.92957 -1.8312,3.23739c-0.1714,0.30782 -0.2571,0.49322 -0.2571,0.55618c0,0.06296 0.21338,0.09445 0.64013,0.09445h7.17788c0.28684,0 0.43025,-0.02798 0.43025,-0.08395c0,-0.29383 -0.29908,-2.25096 -0.89724,-5.87138c-0.59816,-3.62042 -0.91647,-5.43064 -0.95495,-5.43064c-0.03848,0 -0.50371,0.78705 -1.3957,2.36115z" data-paper-data="{&quot;elementType&quot;:&quot;letter&quot;,&quot;baseline&quot;:68.994140625,&quot;baselineProportion&quot;:0.9912311469659768,&quot;fontSize&quot;:100}"></path><path d="M124.24752,264.67937l-4.42846,0.13642c-0.30083,0 -0.49672,-0.05772 -0.58766,-0.17315c-0.09095,-0.11543 -0.13642,-0.33756 -0.13642,-0.66637c0,-0.32881 0.05772,-0.52995 0.17315,-0.6034c0.11543,-0.07346 0.35854,-0.11019 0.72933,-0.11019h1.71052c0.007,-0.05597 0.12418,-0.80279 0.35155,-2.24046c0.22737,-1.43768 0.45999,-2.92782 0.69785,-4.47044c0.23786,-1.54262 0.51421,-3.37207 0.82902,-5.48835c0.31482,-2.11629 0.59116,-4.02794 0.82902,-5.73496c0.57367,-4.12763 0.86051,-6.68816 0.86051,-7.68159l-0.04198,-0.30433h-2.48707c-0.42676,0 -0.66287,-0.0822 -0.70834,-0.24661c-0.04547,-0.16441 -0.06821,-0.33756 -0.06821,-0.51945c0,-0.48972 0.18539,-0.73458 0.55618,-0.73458l2.04633,0.06296c1.35722,0.04198 2.33666,0.06296 2.93831,0.06296c0,0 2.99778,-0.04198 8.99334,-0.12593c2.59551,0 3.91076,-0.14342 3.94574,-0.43025c0,-0.43375 0.23087,-0.65063 0.6926,-0.65063c0.31482,0 0.53694,0.04023 0.66637,0.12068c0.12943,0.08045 0.19414,0.21688 0.19414,0.40927c0,0.19239 -0.05597,0.82728 -0.1679,1.90466c-0.11194,1.07738 -0.18539,2.28769 -0.22037,3.63092c0,0.20288 -0.05597,0.33231 -0.1679,0.38828c-0.11194,0.05597 -0.32182,0.08395 -0.62964,0.08395c-0.30782,0 -0.5177,-0.03673 -0.62964,-0.11019c-0.11194,-0.07346 -0.1679,-0.1679 -0.1679,-0.28334c0,-0.11543 0.08745,-1.24354 0.26235,-3.38431c-1.24529,-0.1749 -4.94267,-0.26235 -11.09214,-0.26235c-0.27284,0.77655 -0.63489,2.91208 -1.08613,6.40658c-0.45124,3.4945 -0.67686,5.29246 -0.67686,5.39391c0,0.10144 0.0035,0.15916 0.01049,0.17315c0.02099,0.04198 0.18889,0.06296 0.50371,0.06296h7.05196c1.20331,0 1.83295,-0.15741 1.88892,-0.47223l0.47223,-2.36115c0.02798,-0.20288 0.28684,-0.30433 0.77655,-0.30433c0.48972,0 0.73458,0.12943 0.73458,0.38828c0,0.18889 -0.10494,0.75906 -0.31482,1.71052c-0.62964,2.95231 -0.9672,4.70655 -1.01267,5.26273c-0.04547,0.55618 -0.10669,0.86226 -0.18364,0.91822c-0.10494,0.06996 -0.29033,0.10494 -0.55618,0.10494h-0.1679c-0.46174,0 -0.6926,-0.11543 -0.6926,-0.3463l0.51421,-3.01177c0,-0.21688 -0.18714,-0.3498 -0.56143,-0.39877c-0.37429,-0.04897 -0.85876,-0.07346 -1.45342,-0.07346h-6.49577c-0.32182,0 -0.51246,0.01399 -0.57192,0.04198c-0.05947,0.02798 -0.11893,0.19064 -0.1784,0.48797c-0.05947,0.29733 -0.32531,2.09705 -0.79754,5.39915c-0.47223,3.30211 -0.75732,5.37991 -0.85526,6.23342c0,0.1749 0.05597,0.26235 0.1679,0.26235l13.71563,-0.30433c0.11893,-0.10494 0.36554,-0.73108 0.73983,-1.87842c0.37429,-1.14734 0.6069,-1.83994 0.69785,-2.07781c0.09095,-0.23786 0.18714,-0.39702 0.28858,-0.47748c0.10144,-0.08045 0.2606,-0.12068 0.47748,-0.12068c0.21688,0 0.41976,0.05422 0.60865,0.16266c0.18889,0.10844 0.28334,0.24836 0.28334,0.41976c0,0.1714 -0.0787,0.48972 -0.23611,0.95495c-0.15741,0.46523 -0.40227,1.15084 -0.73458,2.05682c-0.33231,0.90598 -0.57017,1.58109 -0.71359,2.02534c-0.14342,0.44425 -0.28159,0.70834 -0.41451,0.7923c-0.13292,0.08395 -0.32182,0.12593 -0.56667,0.12593z" data-paper-data="{&quot;elementType&quot;:&quot;letter&quot;,&quot;baseline&quot;:69.3115234375,&quot;baselineProportion&quot;:0.9912709497206704,&quot;fontSize&quot;:100}"></path><path d="M155.15045,264.67937l-4.30253,0.13642c-0.29383,0 -0.48097,-0.05597 -0.56143,-0.1679c-0.08045,-0.11194 -0.12068,-0.33056 -0.12068,-0.65587c0,-0.32531 0.05597,-0.5282 0.1679,-0.60865c0.11194,-0.08045 0.3428,-0.12068 0.6926,-0.12068h2.14077c0.1819,-1.05639 0.77306,-5.44288 1.77348,-13.15945c1.00043,-7.71657 1.50064,-11.86869 1.50064,-12.45636v-0.43025h-2.53954c-0.30083,0 -0.49846,-0.04897 -0.59291,-0.14692c-0.09445,-0.09794 -0.14167,-0.31307 -0.14167,-0.64538c0,-0.33231 0.04897,-0.54219 0.14692,-0.62964c0.09794,-0.08745 0.32182,-0.13117 0.67161,-0.13117l4.38648,0.13642c0,0 1.5776,-0.04547 4.73279,-0.13642c0.36379,0 0.59641,0.04897 0.69785,0.14692c0.10144,0.09794 0.15216,0.29908 0.15216,0.6034c0,0.30433 -0.06121,0.51421 -0.18364,0.62964c-0.12243,0.11543 -0.36204,0.17315 -0.71884,0.17315h-2.52905c-0.1749,1.2243 -0.77131,5.64926 -1.78922,13.27489c-1.01792,7.62563 -1.52687,11.56961 -1.52687,11.83196c0,0.26235 0.05247,0.45649 0.15741,0.58242c0.10494,0.12593 0.58941,0.18889 1.45342,0.18889c0.864,0 2.28244,-0.01749 4.25531,-0.05247c5.10007,-0.10494 7.68859,-0.20113 7.76555,-0.28858c0.07696,-0.08745 0.19239,-0.36204 0.3463,-0.82378l1.11236,-3.38956c0.09794,-0.29383 0.28334,-0.42326 0.55618,-0.38828c0.6926,0.07696 1.0389,0.27634 1.0389,0.59816c0,0.04198 -0.07346,0.29733 -0.22037,0.76606c-0.56667,1.78398 -0.9602,3.07474 -1.18057,3.87228c-0.22037,0.79754 -0.38653,1.23479 -0.49846,1.31175c-0.11194,0.07696 -0.28334,0.11543 -0.51421,0.11543z" data-paper-data="{&quot;elementType&quot;:&quot;letter&quot;,&quot;baseline&quot;:67.2119140625,&quot;baselineProportion&quot;:0.9910007199424046,&quot;fontSize&quot;:100}"></path><path d="M186.5256,264.67937l-4.30253,0.13642c-0.29383,0 -0.48097,-0.05597 -0.56143,-0.1679c-0.08045,-0.11194 -0.12068,-0.33056 -0.12068,-0.65587c0,-0.32531 0.05597,-0.5282 0.1679,-0.60865c0.11194,-0.08045 0.3428,-0.12068 0.6926,-0.12068h2.14077c0.1819,-1.05639 0.77306,-5.44288 1.77348,-13.15945c1.00043,-7.71657 1.50064,-11.86869 1.50064,-12.45636v-0.43025h-2.53954c-0.30083,0 -0.49846,-0.04897 -0.59291,-0.14692c-0.09445,-0.09794 -0.14167,-0.31307 -0.14167,-0.64538c0,-0.33231 0.04897,-0.54219 0.14692,-0.62964c0.09794,-0.08745 0.32182,-0.13117 0.67161,-0.13117l4.38648,0.13642c0,0 1.5776,-0.04547 4.73279,-0.13642c0.36379,0 0.59641,0.04897 0.69785,0.14692c0.10144,0.09794 0.15216,0.29908 0.15216,0.6034c0,0.30433 -0.06121,0.51421 -0.18364,0.62964c-0.12243,0.11543 -0.36204,0.17315 -0.71884,0.17315h-2.52905c-0.1749,1.2243 -0.77131,5.64926 -1.78922,13.27489c-1.01792,7.62563 -1.52687,11.56961 -1.52687,11.83196c0,0.26235 0.05247,0.45649 0.15741,0.58242c0.10494,0.12593 0.58941,0.18889 1.45342,0.18889c0.864,0 2.28244,-0.01749 4.25531,-0.05247c5.10007,-0.10494 7.68859,-0.20113 7.76555,-0.28858c0.07696,-0.08745 0.19239,-0.36204 0.3463,-0.82378l1.11236,-3.38956c0.09794,-0.29383 0.28334,-0.42326 0.55618,-0.38828c0.6926,0.07696 1.0389,0.27634 1.0389,0.59816c0,0.04198 -0.07346,0.29733 -0.22037,0.76606c-0.56667,1.78398 -0.9602,3.07474 -1.18057,3.87228c-0.22037,0.79754 -0.38653,1.23479 -0.49846,1.31175c-0.11194,0.07696 -0.28334,0.11543 -0.51421,0.11543z" data-paper-data="{&quot;elementType&quot;:&quot;letter&quot;,&quot;baseline&quot;:67.2119140625,&quot;baselineProportion&quot;:0.9910007199424046,&quot;fontSize&quot;:100}"></path><path d="M220.73413,264.67937l-4.12413,0.13642c-0.27984,0 -0.45824,-0.05947 -0.53519,-0.1784c-0.07696,-0.11893 -0.11543,-0.32881 -0.11543,-0.62964c0,-0.30083 0.04897,-0.50021 0.14692,-0.59816c0.09794,-0.09794 0.32182,-0.14692 0.67161,-0.14692h1.88892c0.14692,-0.18889 0.43025,-1.57235 0.85001,-4.15037c0.41976,-2.57802 0.66812,-4.08741 0.74507,-4.52815c0.07696,-0.44075 0.1679,-0.9637 0.27284,-1.56885c0.10494,-0.60515 0.15741,-1.07214 0.15741,-1.40095c0,-0.07696 -0.96195,-2.32617 -2.88584,-6.74763c-1.9239,-4.42146 -3.03976,-6.9715 -3.34758,-7.65011h-1.93089c-0.30782,0 -0.53519,-0.04547 -0.68211,-0.13642c-0.14692,-0.09095 -0.22037,-0.30433 -0.22037,-0.64013c0,-0.33581 0.06996,-0.54919 0.20988,-0.64013c0.13992,-0.09095 0.37079,-0.13642 0.6926,-0.13642l4.33401,0.13642l3.8303,-0.13642c0.29383,0 0.48097,0.05772 0.56143,0.17315c0.08045,0.11543 0.12068,0.33931 0.12068,0.67161c0,0.33231 -0.05072,0.53344 -0.15216,0.6034c-0.10144,0.06996 -0.33406,0.10494 -0.69785,0.10494h-1.72101c0,0.02798 0.01749,0.09619 0.05247,0.20463c0.03498,0.10844 0.15391,0.50371 0.3568,1.18582c0.20288,0.68211 0.9602,2.63224 2.27195,5.85039c1.31175,3.21815 1.99036,4.85696 2.03583,4.91643c0.04547,0.05947 0.10319,0.06821 0.17315,0.02623c0.09095,-0.06296 0.18364,-0.16965 0.27809,-0.32007c0.09445,-0.15041 0.21163,-0.33231 0.35155,-0.54569c0.13992,-0.21338 0.58067,-0.86575 1.32224,-1.95713c0.74157,-1.09137 1.4027,-2.07256 1.98336,-2.94356c0.58067,-0.871 1.18582,-1.79622 1.81546,-2.77566c1.35722,-2.0918 2.03583,-3.3056 2.03583,-3.64141h-2.15127c-0.37079,0 -0.6139,-0.03498 -0.72933,-0.10494c-0.11543,-0.06996 -0.17315,-0.26935 -0.17315,-0.59816c0,-0.32881 0.04722,-0.55268 0.14167,-0.67161c0.09445,-0.11893 0.29208,-0.1784 0.59291,-0.1784l3.34758,0.13642l3.3161,-0.13642c0.28684,0 0.47223,0.04547 0.55618,0.13642c0.08395,0.09095 0.12593,0.30782 0.12593,0.65063c0,0.3428 -0.04372,0.55618 -0.13117,0.64013c-0.08745,0.08395 -0.27109,0.12593 -0.55093,0.12593h-1.63706c-0.3498,0.3498 -1.742,2.19674 -4.1766,5.54082c-2.4346,3.34408 -4.20809,5.86614 -5.32045,7.56616c-0.15391,0.27984 -0.26935,0.59466 -0.3463,0.94446l-1.45866,8.81494c-0.28684,1.742 -0.43025,2.70745 -0.43025,2.89634c0,0.18889 0.01399,0.28334 0.04198,0.28334h2.74942c0.24486,0 0.40577,0.04897 0.48272,0.14692c0.07696,0.09794 0.11543,0.29733 0.11543,0.59816c0,0.30083 -0.03848,0.51071 -0.11543,0.62964c-0.07696,0.11893 -0.23786,0.1784 -0.48272,0.1784z" data-paper-data="{&quot;elementType&quot;:&quot;letter&quot;,&quot;baseline&quot;:67.2119140625,&quot;baselineProportion&quot;:0.9910007199424046,&quot;fontSize&quot;:100}"></path></g><g data-paper-data="{&quot;baselineProportion&quot;:0.9775074868279873,&quot;fontSize&quot;:100,&quot;baseline&quot;:69.3115234375,&quot;elementType&quot;:&quot;word&quot;}"><path d="M256.68467,239.7929c0,0 0.19064,-0.32619 0.57192,-0.97856c0.38128,-0.65238 1.25228,-1.34061 2.613,-2.06469c1.36072,-0.72408 2.93657,-1.08613 4.72754,-1.08613c1.79097,0 3.71487,0.79055 5.77169,2.37164c0.03498,-0.11893 0.08395,-0.3428 0.14692,-0.67161c0.06296,-0.32881 0.10494,-0.53344 0.12593,-0.6139c0.02099,-0.08045 0.03673,-0.13467 0.04722,-0.16266c0.01049,-0.02798 0.03323,-0.06646 0.06821,-0.11543c0.03498,-0.04897 0.06996,-0.08745 0.10494,-0.11543c0.09794,-0.06996 0.19589,-0.09969 0.29383,-0.0892c0.09794,0.01049 0.20988,0.02099 0.33581,0.03148c0.12593,0.01049 0.23087,0.02623 0.31482,0.04722c0.24486,0.04897 0.36729,0.16965 0.36729,0.36204c0,0.19239 -0.45824,2.62524 -1.37471,7.29856c-0.06296,0.3428 -0.24836,0.51421 -0.55618,0.51421c-0.65762,0 -0.98643,-0.19939 -0.98643,-0.59816l0.32531,-1.32224c0.20988,-0.88849 0.30957,-1.41494 0.29908,-1.57934c-0.01049,-0.16441 -0.10319,-0.37254 -0.27809,-0.62439c-0.1749,-0.25186 -0.44075,-0.55793 -0.79754,-0.91822c-0.3568,-0.36029 -0.75557,-0.70485 -1.19631,-1.03366c-1.07039,-0.79055 -2.33666,-1.18582 -3.79882,-1.18582c-1.46216,0 -2.66022,0.50546 -3.59419,1.51638c-0.93396,1.01092 -1.40095,2.3524 -1.40095,4.02444c0,1.70702 0.81853,3.08523 2.45559,4.13463c0.81853,0.5177 1.69653,0.98993 2.63399,1.41669c0.93746,0.42676 1.53912,0.7031 1.80496,0.82902c0.26585,0.12593 0.64013,0.31482 1.12286,0.56667c0.48272,0.25186 0.85701,0.46873 1.12286,0.65063c0.26585,0.1819 0.59816,0.42151 0.99693,0.71884c0.39877,0.29733 0.71184,0.58067 0.93921,0.85001c0.22737,0.26935 0.47573,0.59466 0.74507,0.97594c0.26935,0.38128 0.47048,0.76781 0.6034,1.15958c0.33581,0.96545 0.50371,1.88017 0.50371,2.74418c0,0.864 -0.09794,1.63531 -0.29383,2.31392c-0.19589,0.67861 -0.46698,1.28901 -0.81328,1.8312c-0.3463,0.54219 -0.75382,1.04415 -1.22255,1.50589c-0.46873,0.46174 -0.97594,0.86051 -1.52163,1.19631c-0.54569,0.33581 -1.11586,0.62264 -1.71052,0.86051c-1.9099,0.74157 -4.07866,0.88149 -6.50627,0.41976c-1.63706,-0.31482 -2.93831,-0.74857 -3.90376,-1.30125c-1.55311,-0.88149 -2.32966,-1.54611 -2.32966,-1.99386c0,-0.14692 0.16091,-1.1316 0.48272,-2.95406c0.32182,-1.82245 0.50021,-2.77566 0.53519,-2.85961c0.03498,-0.08395 0.15566,-0.12593 0.36204,-0.12593c0.20638,0 0.45649,0.03848 0.75032,0.11543c0.29383,0.07696 0.44075,0.1819 0.44075,0.31482l-0.72408,4.04018c0,0.39877 0.864,1.07039 2.59201,2.01484c1.83295,1.00742 3.5802,1.51113 5.24174,1.51113c1.66155,0 3.00653,-0.48622 4.03494,-1.45866c1.02841,-0.97244 1.54262,-2.20374 1.54262,-3.69388c0,-1.32224 -0.55268,-2.4381 -1.65805,-3.34758c-0.83952,-0.68561 -1.86968,-1.32574 -3.09048,-1.9204c-1.2208,-0.59466 -2.19499,-1.07913 -2.92257,-1.45342c-0.72758,-0.37429 -1.42019,-0.80454 -2.07781,-1.29076c-0.65762,-0.48622 -1.24179,-1.01617 -1.75249,-1.58984c-1.10537,-1.25228 -1.65805,-2.77041 -1.65805,-4.55439c0,-1.78398 0.38128,-3.32834 1.14384,-4.63309z" data-paper-data="{&quot;elementType&quot;:&quot;letter&quot;,&quot;baseline&quot;:67.2119140625,&quot;baselineProportion&quot;:0.976821137406344,&quot;fontSize&quot;:100}"></path><path d="M285.41534,264.67937l-4.85871,0.13642c-0.30083,0 -0.49672,-0.05772 -0.58766,-0.17315c-0.09095,-0.11543 -0.13642,-0.33756 -0.13642,-0.66637c0,-0.32881 0.05772,-0.52995 0.17315,-0.6034c0.11543,-0.07346 0.35854,-0.11019 0.72933,-0.11019h2.48707c0.25885,-0.78355 0.95495,-4.9724 2.0883,-12.56654c1.13335,-7.59414 1.70002,-11.73927 1.70002,-12.43537c0,-0.6961 -0.08745,-1.04415 -0.26235,-1.04415h-2.87535c-0.40577,0 -0.60865,-0.21338 -0.60865,-0.64013c0,-0.42676 0.06296,-0.68561 0.18889,-0.77655c0.12593,-0.09095 0.3498,-0.13642 0.67161,-0.13642c0,0 1.67554,0.04547 5.02662,0.13642l4.69081,-0.13642c0.30083,0 0.49846,0.05947 0.59291,0.1784c0.09445,0.11893 0.14167,0.3428 0.14167,0.67161c0,0.32881 -0.05772,0.5282 -0.17315,0.59816c-0.11543,0.06996 -0.35854,0.10494 -0.72933,0.10494h-2.41362c-0.30782,0.66462 -1.00043,4.78001 -2.07781,12.34617c-1.07738,7.56616 -1.61607,11.98937 -1.61607,13.26964c0,0.28684 0.06996,0.43025 0.20988,0.43025h2.84387c0.24486,0 0.40577,0.04897 0.48272,0.14692c0.07696,0.09794 0.11543,0.29733 0.11543,0.59816c0,0.30083 -0.03848,0.51071 -0.11543,0.62964c-0.07696,0.11893 -0.23786,0.1784 -0.48272,0.1784z" data-paper-data="{&quot;elementType&quot;:&quot;letter&quot;,&quot;baseline&quot;:67.2119140625,&quot;baselineProportion&quot;:0.9910007199424046,&quot;fontSize&quot;:100}"></path><path d="M304.17673,239.7929c0,0 0.19064,-0.32619 0.57192,-0.97856c0.38128,-0.65238 1.25228,-1.34061 2.613,-2.06469c1.36072,-0.72408 2.93657,-1.08613 4.72754,-1.08613c1.79097,0 3.71487,0.79055 5.77169,2.37164c0.03498,-0.11893 0.08395,-0.3428 0.14692,-0.67161c0.06296,-0.32881 0.10494,-0.53344 0.12593,-0.6139c0.02099,-0.08045 0.03673,-0.13467 0.04722,-0.16266c0.01049,-0.02798 0.03323,-0.06646 0.06821,-0.11543c0.03498,-0.04897 0.06996,-0.08745 0.10494,-0.11543c0.09794,-0.06996 0.19589,-0.09969 0.29383,-0.0892c0.09794,0.01049 0.20988,0.02099 0.33581,0.03148c0.12593,0.01049 0.23087,0.02623 0.31482,0.04722c0.24486,0.04897 0.36729,0.16965 0.36729,0.36204c0,0.19239 -0.45824,2.62524 -1.37471,7.29856c-0.06296,0.3428 -0.24836,0.51421 -0.55618,0.51421c-0.65762,0 -0.98643,-0.19939 -0.98643,-0.59816l0.32531,-1.32224c0.20988,-0.88849 0.30957,-1.41494 0.29908,-1.57934c-0.01049,-0.16441 -0.10319,-0.37254 -0.27809,-0.62439c-0.1749,-0.25186 -0.44075,-0.55793 -0.79754,-0.91822c-0.3568,-0.36029 -0.75557,-0.70485 -1.19631,-1.03366c-1.07039,-0.79055 -2.33666,-1.18582 -3.79882,-1.18582c-1.46216,0 -2.66022,0.50546 -3.59419,1.51638c-0.93396,1.01092 -1.40095,2.3524 -1.40095,4.02444c0,1.70702 0.81853,3.08523 2.45559,4.13463c0.81853,0.5177 1.69653,0.98993 2.63399,1.41669c0.93746,0.42676 1.53912,0.7031 1.80496,0.82902c0.26585,0.12593 0.64013,0.31482 1.12286,0.56667c0.48272,0.25186 0.85701,0.46873 1.12286,0.65063c0.26585,0.1819 0.59816,0.42151 0.99693,0.71884c0.39877,0.29733 0.71184,0.58067 0.93921,0.85001c0.22737,0.26935 0.47573,0.59466 0.74507,0.97594c0.26935,0.38128 0.47048,0.76781 0.6034,1.15958c0.33581,0.96545 0.50371,1.88017 0.50371,2.74418c0,0.864 -0.09794,1.63531 -0.29383,2.31392c-0.19589,0.67861 -0.46698,1.28901 -0.81328,1.8312c-0.3463,0.54219 -0.75382,1.04415 -1.22255,1.50589c-0.46873,0.46174 -0.97594,0.86051 -1.52163,1.19631c-0.54569,0.33581 -1.11586,0.62264 -1.71052,0.86051c-1.9099,0.74157 -4.07866,0.88149 -6.50627,0.41976c-1.63706,-0.31482 -2.93831,-0.74857 -3.90376,-1.30125c-1.55311,-0.88149 -2.32966,-1.54611 -2.32966,-1.99386c0,-0.14692 0.16091,-1.1316 0.48272,-2.95406c0.32182,-1.82245 0.50021,-2.77566 0.53519,-2.85961c0.03498,-0.08395 0.15566,-0.12593 0.36204,-0.12593c0.20638,0 0.45649,0.03848 0.75032,0.11543c0.29383,0.07696 0.44075,0.1819 0.44075,0.31482l-0.72408,4.04018c0,0.39877 0.864,1.07039 2.59201,2.01484c1.83295,1.00742 3.5802,1.51113 5.24174,1.51113c1.66155,0 3.00653,-0.48622 4.03494,-1.45866c1.02841,-0.97244 1.54262,-2.20374 1.54262,-3.69388c0,-1.32224 -0.55268,-2.4381 -1.65805,-3.34758c-0.83952,-0.68561 -1.86968,-1.32574 -3.09048,-1.9204c-1.2208,-0.59466 -2.19499,-1.07913 -2.92257,-1.45342c-0.72758,-0.37429 -1.42019,-0.80454 -2.07781,-1.29076c-0.65762,-0.48622 -1.24179,-1.01617 -1.75249,-1.58984c-1.10537,-1.25228 -1.65805,-2.77041 -1.65805,-4.55439c0,-1.78398 0.38128,-3.32834 1.14384,-4.63309z" data-paper-data="{&quot;elementType&quot;:&quot;letter&quot;,&quot;baseline&quot;:67.2119140625,&quot;baselineProportion&quot;:0.976821137406344,&quot;fontSize&quot;:100}"></path><path d="M328.9092,241.68706c-0.62964,0 -0.94446,-0.19939 -0.94446,-0.59816c0,-0.04198 0.07696,-0.28684 0.23087,-0.73458c0.72059,-2.03583 1.18057,-3.36857 1.37996,-3.99821c0.19939,-0.62964 0.32356,-0.98643 0.37254,-1.07039c0.04897,-0.08395 0.09445,-0.15041 0.13642,-0.19939c0.04198,-0.04897 0.11194,-0.08395 0.20988,-0.10494c0.12593,-0.02798 0.30782,-0.04198 0.54569,-0.04198c0.39877,0 0.59816,0.21338 0.59816,0.64013v0.1784c0.38478,0.1679 1.86093,0.25186 4.42846,0.25186h14.01996c2.84037,0 4.28504,-0.11543 4.33401,-0.3463c0.02099,-0.25885 0.0787,-0.44425 0.17315,-0.55618c0.09445,-0.11194 0.29033,-0.1679 0.58766,-0.1679c0.29733,0 0.50371,0.03848 0.61914,0.11543c0.11543,0.07696 0.17315,0.23786 0.17315,0.48272l-0.38828,5.67724c0,0.19589 -0.07346,0.32356 -0.22037,0.38303c-0.14692,0.05947 -0.34105,0.0892 -0.58242,0.0892c-0.24136,0 -0.40402,-0.01224 -0.48797,-0.03673c-0.08395,-0.02449 -0.14692,-0.07171 -0.18889,-0.14167c-0.04897,-0.08395 -0.07346,-0.24136 -0.07346,-0.47223l0.26235,-3.38956c-0.25885,-0.11194 -1.749,-0.1679 -4.47044,-0.1679h-4.55439c-0.20988,0 -0.3533,0.24136 -0.43025,0.72408c-0.29383,1.94488 -0.94796,6.51501 -1.96237,13.71039c-1.01442,7.19537 -1.52163,10.88576 -1.52163,11.07115c0,0.18539 0.07346,0.27809 0.22037,0.27809h2.74942c0.24486,0 0.40577,0.04897 0.48272,0.14692c0.07696,0.09794 0.11543,0.29733 0.11543,0.59816c0,0.30083 -0.03848,0.51071 -0.11543,0.62964c-0.07696,0.11893 -0.23786,0.1784 -0.48272,0.1784l-5.16304,-0.13642l-4.85871,0.13642c-0.28684,0 -0.46523,-0.05422 -0.53519,-0.16266c-0.06996,-0.10844 -0.10494,-0.33231 -0.10494,-0.67161c0,-0.33931 0.04722,-0.54394 0.14167,-0.6139c0.09445,-0.06996 0.32007,-0.10494 0.67686,-0.10494h2.36115c0.37079,-0.72059 1.14384,-5.09483 2.31917,-13.12272c1.17533,-8.0279 1.76299,-12.10831 1.76299,-12.24123v-0.23087c0,-0.12593 -0.04198,-0.18889 -0.12593,-0.18889h-5.88712c-2.55354,0 -3.87228,0.12593 -3.95623,0.37778l-1.02841,3.01177c-0.11893,0.32182 -0.22562,0.53869 -0.32007,0.65063c-0.09445,0.11194 -0.2606,0.1679 -0.49846,0.1679z" data-paper-data="{&quot;elementType&quot;:&quot;letter&quot;,&quot;baseline&quot;:68.896484375,&quot;baselineProportion&quot;:0.9912188268352652,&quot;fontSize&quot;:100}"></path><path d="M365.7832,264.67937l-4.42846,0.13642c-0.30083,0 -0.49672,-0.05772 -0.58766,-0.17315c-0.09095,-0.11543 -0.13642,-0.33756 -0.13642,-0.66637c0,-0.32881 0.05772,-0.52995 0.17315,-0.6034c0.11543,-0.07346 0.35854,-0.11019 0.72933,-0.11019h1.71052c0.007,-0.05597 0.12418,-0.80279 0.35155,-2.24046c0.22737,-1.43768 0.45999,-2.92782 0.69785,-4.47044c0.23786,-1.54262 0.51421,-3.37207 0.82902,-5.48835c0.31482,-2.11629 0.59116,-4.02794 0.82902,-5.73496c0.57367,-4.12763 0.86051,-6.68816 0.86051,-7.68159l-0.04198,-0.30433h-2.48707c-0.42676,0 -0.66287,-0.0822 -0.70834,-0.24661c-0.04547,-0.16441 -0.06821,-0.33756 -0.06821,-0.51945c0,-0.48972 0.18539,-0.73458 0.55618,-0.73458l2.04633,0.06296c1.35722,0.04198 2.33666,0.06296 2.93831,0.06296c0,0 2.99778,-0.04198 8.99334,-0.12593c2.59551,0 3.91076,-0.14342 3.94574,-0.43025c0,-0.43375 0.23087,-0.65063 0.6926,-0.65063c0.31482,0 0.53694,0.04023 0.66637,0.12068c0.12943,0.08045 0.19414,0.21688 0.19414,0.40927c0,0.19239 -0.05597,0.82728 -0.1679,1.90466c-0.11194,1.07738 -0.18539,2.28769 -0.22037,3.63092c0,0.20288 -0.05597,0.33231 -0.1679,0.38828c-0.11194,0.05597 -0.32182,0.08395 -0.62964,0.08395c-0.30782,0 -0.5177,-0.03673 -0.62964,-0.11019c-0.11194,-0.07346 -0.1679,-0.1679 -0.1679,-0.28334c0,-0.11543 0.08745,-1.24354 0.26235,-3.38431c-1.24529,-0.1749 -4.94267,-0.26235 -11.09214,-0.26235c-0.27284,0.77655 -0.63489,2.91208 -1.08613,6.40658c-0.45124,3.4945 -0.67686,5.29246 -0.67686,5.39391c0,0.10144 0.0035,0.15916 0.01049,0.17315c0.02099,0.04198 0.18889,0.06296 0.50371,0.06296h7.05196c1.20331,0 1.83295,-0.15741 1.88892,-0.47223l0.47223,-2.36115c0.02798,-0.20288 0.28684,-0.30433 0.77655,-0.30433c0.48972,0 0.73458,0.12943 0.73458,0.38828c0,0.18889 -0.10494,0.75906 -0.31482,1.71052c-0.62964,2.95231 -0.9672,4.70655 -1.01267,5.26273c-0.04547,0.55618 -0.10669,0.86226 -0.18364,0.91822c-0.10494,0.06996 -0.29033,0.10494 -0.55618,0.10494h-0.1679c-0.46174,0 -0.6926,-0.11543 -0.6926,-0.3463l0.51421,-3.01177c0,-0.21688 -0.18714,-0.3498 -0.56143,-0.39877c-0.37429,-0.04897 -0.85876,-0.07346 -1.45342,-0.07346h-6.49577c-0.32182,0 -0.51246,0.01399 -0.57192,0.04198c-0.05947,0.02798 -0.11893,0.19064 -0.1784,0.48797c-0.05947,0.29733 -0.32531,2.09705 -0.79754,5.39915c-0.47223,3.30211 -0.75732,5.37991 -0.85526,6.23342c0,0.1749 0.05597,0.26235 0.1679,0.26235l13.71563,-0.30433c0.11893,-0.10494 0.36554,-0.73108 0.73983,-1.87842c0.37429,-1.14734 0.6069,-1.83994 0.69785,-2.07781c0.09095,-0.23786 0.18714,-0.39702 0.28858,-0.47748c0.10144,-0.08045 0.2606,-0.12068 0.47748,-0.12068c0.21688,0 0.41976,0.05422 0.60865,0.16266c0.18889,0.10844 0.28334,0.24836 0.28334,0.41976c0,0.1714 -0.0787,0.48972 -0.23611,0.95495c-0.15741,0.46523 -0.40227,1.15084 -0.73458,2.05682c-0.33231,0.90598 -0.57017,1.58109 -0.71359,2.02534c-0.14342,0.44425 -0.28159,0.70834 -0.41451,0.7923c-0.13292,0.08395 -0.32182,0.12593 -0.56667,0.12593z" data-paper-data="{&quot;elementType&quot;:&quot;letter&quot;,&quot;baseline&quot;:69.3115234375,&quot;baselineProportion&quot;:0.9912709497206704,&quot;fontSize&quot;:100}"></path><path d="M396.85403,264.67937l-4.42846,0.13642c-0.30782,0 -0.50546,-0.04722 -0.59291,-0.14167c-0.08745,-0.09445 -0.13117,-0.30258 -0.13117,-0.62439c0,-0.32182 0.05947,-0.53344 0.1784,-0.63489c0.11893,-0.10144 0.36029,-0.15216 0.72408,-0.15216h1.62657c0.5317,-3.12021 1.19282,-7.47171 1.98336,-13.05451c1.05639,-7.40175 1.58459,-11.69029 1.58459,-12.86562h-2.7914c-0.42676,0 -0.66287,-0.0822 -0.70834,-0.24661c-0.04547,-0.16441 -0.06821,-0.33756 -0.06821,-0.51945c0,-0.48972 0.23087,-0.73458 0.6926,-0.73458c0,0 1.58809,0.04198 4.76427,0.12593l6.1075,-0.30433c1.63706,0 3.12546,0.29558 4.46519,0.88674c1.33973,0.59116 2.39962,1.43068 3.17968,2.51856c0.78005,1.08788 1.17008,2.31742 1.17008,3.68863c0,3.88277 -2.64099,6.48878 -7.92296,7.81802c-0.09095,0.02798 -0.15741,0.04547 -0.19939,0.05247c0.07696,0.02798 0.26235,0.09095 0.55618,0.18889c0.76256,0.25186 1.42019,0.48972 1.97287,0.71359c3.29511,1.31525 4.94267,3.70787 4.94267,7.17788l-0.12593,4.20809c0,0.07696 0.01399,0.19239 0.04198,0.3463h1.93089c0.3498,0 0.58067,0.05072 0.6926,0.15216c0.11194,0.10144 0.1679,0.36029 0.1679,0.77655c0,0.41626 -0.11194,0.62439 -0.33581,0.62439l-6.41182,-0.13642c-0.31482,0 -0.39877,-0.22737 -0.25186,-0.68211c0.45474,-2.65848 0.68211,-4.90769 0.68211,-6.74763c0,-1.33623 -0.53344,-2.54479 -1.60033,-3.62567c-1.06689,-1.08088 -2.43635,-1.79272 -4.10839,-2.13553c-0.71359,-0.14692 -1.71751,-0.22037 -3.01177,-0.22037h-1.24878c-0.56667,0 -0.89549,0.30083 -0.98643,0.90248c-0.74157,5.17703 -1.15784,8.79046 -1.24878,10.84028c0,0.1679 0.07346,0.25186 0.22037,0.25186h2.27719c0.25885,0 0.43725,0.04722 0.53519,0.14167c0.09794,0.09445 0.14692,0.29383 0.14692,0.59816c0,0.30433 -0.03848,0.51595 -0.11543,0.63489c-0.07696,0.11893 -0.23786,0.1784 -0.48272,0.1784l-3.87228,-0.13642M400.81026,249.9773l3.01177,0.13642c1.16133,0 2.36115,-0.44774 3.59944,-1.34323c2.18275,-1.58809 3.27412,-3.46301 3.27412,-5.62477c0,-4.06467 -2.40662,-6.097 -7.21986,-6.097c-1.09137,0 -1.76649,0.04198 -2.02534,0.12593l-1.54262,11.81622c-0.02798,0.1749 -0.04198,0.35505 -0.04198,0.54044c0,0.18539 0.04722,0.30607 0.14167,0.36204c0.09445,0.05597 0.2606,0.08395 0.49846,0.08395z" data-paper-data="{&quot;elementType&quot;:&quot;letter&quot;,&quot;baseline&quot;:67.2119140625,&quot;baselineProportion&quot;:0.9910007199424046,&quot;fontSize&quot;:100}"></path></g></g></g></g></g></svg>