<svg version="1.1" xmlns="http://www.w3.org/2000/svg" xmlns:xlink="http://www.w3.org/1999/xlink" width="500" height="500"><g data-paper-data="{&quot;description&quot;:&quot;Logo for Aelly sister\n=====================\n\nThis logo was generated by MarkMaker at http://emblemmatic.org/markmaker/ and may be composed of elements designed by others.\n\nThe font is Merriweather Black Italic designed by Eben Sorkin and released under the OFL license via Google Fonts: https://www.google.com/fonts/specimen/Merriweather. The font includes this copyright statement: Copyright (c) 2010-2016, Sorkin Type Co (www.sorkintype.com) with Reserved Font Name \\'Merriweather\\'\n\nMarkMaker uses semantic data from the Princeton University WordNet database http://wordnet.princeton.edu and font descriptions from Google Fonts https://www.google.com/fonts.&quot;}" fill="#0e1f1c" fill-rule="nonzero" stroke="none" stroke-width="1" stroke-linecap="butt" stroke-linejoin="miter" stroke-miterlimit="10" stroke-dasharray="" stroke-dashoffset="0" font-family="none" font-weight="none" font-size="none" text-anchor="none" style="mix-blend-mode: normal"><g data-paper-data="{&quot;elementType&quot;:&quot;logo&quot;}"><g data-paper-data="{&quot;elementType&quot;:&quot;text&quot;}"><g data-paper-data="{&quot;baseline&quot;:75.244140625,&quot;elementType&quot;:&quot;row&quot;}"><g data-paper-data="{&quot;baselineProportion&quot;:1,&quot;fontSize&quot;:100,&quot;baseline&quot;:74.31640625,&quot;elementType&quot;:&quot;word&quot;}"><path d="M76.91738,232.10979l5.79146,32.45092l3.775,0.75031l-0.14068,2.4854h-16.15512l0.11724,-2.4854l3.68121,-0.67997l-0.93789,-6.58866h-11.41878l-2.76677,6.56521l4.40807,0.70342l-0.18758,2.4854h-13.08353l0.18758,-2.4854l3.23571,-0.67997l15.35791,-32.52126h8.13618M72.5562,254.50186l-1.82888,-12.89596l-0.21102,-4.47841l-7.38587,17.37437z" data-paper-data="{&quot;elementType&quot;:&quot;letter&quot;,&quot;baseline&quot;:74.31640625,&quot;baselineProportion&quot;:1,&quot;fontSize&quot;:100}"></path><path d="M93.27433,264.6076l3.84534,-29.30899l-3.39984,-0.60963l0.25792,-2.57919h26.21396l-0.8441,8.67546h-5.20528l-0.7972,-5.25217l-7.9486,-0.60963l-1.71165,12.5208l10.76226,-1.07857l-0.86755,5.4163l-10.34021,-0.67997l-1.82888,13.50558l10.85605,-0.82065l2.74332,-6.96382l4.99425,0.32826l-1.6413,10.64503h-29.16831l0.32826,-2.4854z" data-paper-data="{&quot;elementType&quot;:&quot;letter&quot;,&quot;baseline&quot;:74.31640625,&quot;baselineProportion&quot;:1,&quot;fontSize&quot;:100}"></path><path d="M128.48282,264.6076l3.86879,-29.30899l-3.42329,-0.60963l0.30481,-2.57919h15.92064l-0.28137,2.57919l-4.26739,0.60963l-3.89223,29.47312l8.41754,-0.46894l4.94736,-10.57468l4.24394,0.53929l-2.43851,13.52903h-26.91738l0.28137,-2.4854z" data-paper-data="{&quot;elementType&quot;:&quot;letter&quot;,&quot;baseline&quot;:74.31640625,&quot;baselineProportion&quot;:1,&quot;fontSize&quot;:100}"></path><path d="M162.84722,264.6076l3.86879,-29.30899l-3.42329,-0.60963l0.30481,-2.57919h15.92064l-0.28137,2.57919l-4.26739,0.60963l-3.89223,29.47312l8.41754,-0.46894l4.94736,-10.57468l4.24394,0.53929l-2.43851,13.52903h-26.91738l0.28137,-2.4854z" data-paper-data="{&quot;elementType&quot;:&quot;letter&quot;,&quot;baseline&quot;:74.31640625,&quot;baselineProportion&quot;:1,&quot;fontSize&quot;:100}"></path><path d="M203.9644,264.6076l1.35994,-10.99673l-7.76102,-18.31226l-3.07158,-0.60963l0.28137,-2.57919h16.50682l-0.3986,2.57919l-4.00947,0.60963l3.79845,11.20776l1.07857,3.47018l1.45373,-2.83711l7.01071,-11.84083l-3.84534,-0.60963l0.23447,-2.57919h12.49735l-0.35171,2.57919l-3.04814,0.60963l-12.0753,18.31226l-1.43028,10.99673l5.74456,0.70342l-0.23447,2.4854h-19.41428l0.28137,-2.4854z" data-paper-data="{&quot;elementType&quot;:&quot;letter&quot;,&quot;baseline&quot;:74.31640625,&quot;baselineProportion&quot;:1,&quot;fontSize&quot;:100}"></path></g><g data-paper-data="{&quot;baselineProportion&quot;:0.9852941176470589,&quot;fontSize&quot;:100,&quot;baseline&quot;:75.244140625,&quot;elementType&quot;:&quot;word&quot;}"><path d="M263.21872,258.58167l0.25792,5.29907c1.21925,0.95352 2.71206,1.43028 4.47841,1.43028c2.20404,0 3.79845,-0.42987 4.78323,-1.2896c0.98478,-0.85973 1.47717,-2.01646 1.47717,-3.47018c0,-1.00041 -0.1993,-1.89531 -0.5979,-2.6847c-0.3986,-0.78939 -1.03168,-1.56315 -1.89922,-2.32127c-0.86755,-0.75813 -2.05945,-1.62176 -3.5757,-2.59091c-2.37598,-1.51625 -4.24003,-3.13411 -5.59216,-4.85357c-1.35212,-1.71946 -2.02818,-3.70466 -2.02818,-5.95559c0,-2.21967 0.56664,-4.11498 1.69992,-5.68594c1.13328,-1.57096 2.70815,-2.76286 4.72461,-3.5757c2.01646,-0.81284 4.3221,-1.21925 6.91692,-1.21925c4.23613,0 7.3546,0.57836 9.35543,1.73509l-1.26615,7.08105h-4.47841l-0.70342,-4.73633c-0.50021,-0.39079 -1.01605,-0.67606 -1.54751,-0.85582c-0.53147,-0.17976 -1.18018,-0.26964 -1.94612,-0.26964c-1.67257,0 -2.97779,0.38297 -3.91568,1.14891c-0.93789,0.76594 -1.40683,1.77417 -1.40683,3.02469c0,1.10983 0.23056,2.09462 0.69169,2.95435c0.46113,0.85973 1.15673,1.68038 2.0868,2.46196c0.93007,0.78157 2.21576,1.69601 3.85706,2.74332c2.2353,1.40683 4.01338,2.96216 5.33424,4.66599c1.32086,1.70383 1.98129,3.64213 1.98129,5.8149c0,1.95393 -0.51193,3.75937 -1.53579,5.4163c-1.02386,1.65694 -2.56747,2.98561 -4.63082,3.98602c-2.06335,1.00041 -4.59565,1.50062 -7.59689,1.50062c-1.6413,0 -3.25134,-0.12505 -4.83012,-0.37516c-1.57878,-0.2501 -2.93481,-0.55492 -4.06809,-0.91444c-1.13328,-0.35952 -1.8875,-0.6956 -2.26265,-1.00823l1.40683,-7.45621h4.83012M261.34294,261.32499c0.01563,0.03126 0.07816,0.14068 0.18758,0.32826z" data-paper-data="{&quot;elementType&quot;:&quot;letter&quot;,&quot;baseline&quot;:75.244140625,&quot;baselineProportion&quot;:0.9852941176470589,&quot;fontSize&quot;:100}"></path><path d="M291.79166,264.6076l3.86879,-29.30899l-3.44674,-0.60963l0.28137,-2.57919h15.73307l-0.28137,2.57919l-4.03292,0.60963l-3.86879,29.30899l4.10326,0.70342l-0.16413,2.4854h-16.01443l0.30481,-2.4854z" data-paper-data="{&quot;elementType&quot;:&quot;letter&quot;,&quot;baseline&quot;:74.31640625,&quot;baselineProportion&quot;:1,&quot;fontSize&quot;:100}"></path><path d="M317.55093,258.58167l0.25792,5.29907c1.21925,0.95352 2.71206,1.43028 4.47841,1.43028c2.20404,0 3.79845,-0.42987 4.78323,-1.2896c0.98478,-0.85973 1.47717,-2.01646 1.47717,-3.47018c0,-1.00041 -0.1993,-1.89531 -0.5979,-2.6847c-0.3986,-0.78939 -1.03168,-1.56315 -1.89922,-2.32127c-0.86755,-0.75813 -2.05945,-1.62176 -3.5757,-2.59091c-2.37598,-1.51625 -4.24003,-3.13411 -5.59216,-4.85357c-1.35212,-1.71946 -2.02818,-3.70466 -2.02818,-5.95559c0,-2.21967 0.56664,-4.11498 1.69992,-5.68594c1.13328,-1.57096 2.70815,-2.76286 4.72461,-3.5757c2.01646,-0.81284 4.3221,-1.21925 6.91692,-1.21925c4.23613,0 7.3546,0.57836 9.35543,1.73509l-1.26615,7.08105h-4.47841l-0.70342,-4.73633c-0.50021,-0.39079 -1.01605,-0.67606 -1.54751,-0.85582c-0.53147,-0.17976 -1.18018,-0.26964 -1.94612,-0.26964c-1.67257,0 -2.97779,0.38297 -3.91568,1.14891c-0.93789,0.76594 -1.40683,1.77417 -1.40683,3.02469c0,1.10983 0.23056,2.09462 0.69169,2.95435c0.46113,0.85973 1.15673,1.68038 2.0868,2.46196c0.93007,0.78157 2.21576,1.69601 3.85706,2.74332c2.2353,1.40683 4.01338,2.96216 5.33424,4.66599c1.32086,1.70383 1.98129,3.64213 1.98129,5.8149c0,1.95393 -0.51193,3.75937 -1.53579,5.4163c-1.02386,1.65694 -2.56747,2.98561 -4.63082,3.98602c-2.06335,1.00041 -4.59565,1.50062 -7.59689,1.50062c-1.6413,0 -3.25134,-0.12505 -4.83012,-0.37516c-1.57878,-0.2501 -2.93481,-0.55492 -4.06809,-0.91444c-1.13328,-0.35952 -1.8875,-0.6956 -2.26265,-1.00823l1.40683,-7.45621h4.83012M315.67515,261.32499c0.01563,0.03126 0.07816,0.14068 0.18758,0.32826z" data-paper-data="{&quot;elementType&quot;:&quot;letter&quot;,&quot;baseline&quot;:75.244140625,&quot;baselineProportion&quot;:0.9852941176470589,&quot;fontSize&quot;:100}"></path><path d="M354.33039,264.6076l3.93913,-29.68415l-5.60388,0.60963l-3.86879,10.29332h-4.40807l2.32127,-13.71661h32.12266l-1.99301,13.66971l-4.24394,0.04689l-0.42205,-10.29332l-5.62733,-0.60963l-3.96258,29.68415l6.659,0.70342l-0.23447,2.4854h-20.84456l0.30481,-2.4854z" data-paper-data="{&quot;elementType&quot;:&quot;letter&quot;,&quot;baseline&quot;:74.31640625,&quot;baselineProportion&quot;:1,&quot;fontSize&quot;:100}"></path><path d="M384.47429,264.6076l3.84534,-29.30899l-3.39984,-0.60963l0.25792,-2.57919h26.21396l-0.8441,8.67546h-5.20528l-0.7972,-5.25217l-7.9486,-0.60963l-1.71165,12.5208l10.76226,-1.07857l-0.86755,5.4163l-10.34021,-0.67997l-1.82888,13.50558l10.85605,-0.82065l2.74332,-6.96382l4.99425,0.32826l-1.6413,10.64503h-29.16831l0.32826,-2.4854z" data-paper-data="{&quot;elementType&quot;:&quot;letter&quot;,&quot;baseline&quot;:74.31640625,&quot;baselineProportion&quot;:1,&quot;fontSize&quot;:100}"></path><path d="M419.68278,264.6076l3.86879,-29.30899l-3.39984,-0.60963l0.30481,-2.57919h7.29208c1.0942,0 2.31346,-0.05471 3.65776,-0.16413c0.67215,-0.04689 1.42246,-0.09379 2.25093,-0.14068c0.82847,-0.04689 1.72728,-0.07034 2.69643,-0.07034c3.14192,0 5.63514,0.35171 7.47965,1.05512c1.84451,0.70342 3.15365,1.70774 3.9274,3.01296c0.77376,1.30523 1.16064,2.93481 1.16064,4.88874c0,2.50103 -0.69951,4.68162 -2.09852,6.54177c-1.39902,1.86014 -3.34123,3.2279 -5.82663,4.10326c0.48458,0.56273 1.00432,1.48108 1.55924,2.75505c0.55492,1.27396 1.15282,2.76286 1.79371,4.46669l0.23447,0.58618l0.3986,0.86755c0.64089,1.43809 1.15282,2.49322 1.53579,3.16537c0.38297,0.67215 0.8441,1.1919 1.38338,1.55924c0.53929,0.36734 1.23879,0.55882 2.09852,0.57446l-0.23447,2.50885l-9.73059,-0.04689c-0.23447,0.01563 -0.47676,-0.24229 -0.72686,-0.77376c-0.2501,-0.53147 -0.594,-1.40683 -1.03168,-2.62609l-0.35171,-0.98478l-1.05512,-2.9309c-0.89099,-2.5323 -1.57487,-4.43152 -2.05163,-5.69767c-0.47676,-1.26615 -0.85582,-2.09462 -1.13719,-2.4854l-4.29084,0.02345l-1.54751,12.30978l4.31428,0.70342l-0.14068,2.4854h-15.8503l0.21102,-2.4854l3.30605,-0.70342M433.32905,249.10901c1.48499,0 2.76286,-0.33998 3.83362,-1.01995c1.07076,-0.67997 1.87968,-1.6882 2.42678,-3.02469c0.5471,-1.33649 0.78157,-2.96607 0.70342,-4.88874c-0.06253,-1.81325 -0.60963,-3.181 -1.6413,-4.10326c-1.03168,-0.92226 -2.43851,-1.38338 -4.22049,-1.38338c-0.32826,0 -0.76203,0.01954 -1.30132,0.05862c-0.53929,0.03908 -1.00432,0.0977 -1.39511,0.17585l-1.89922,14.11521c0.5471,0.04689 1.71165,0.07034 3.49363,0.07034z" data-paper-data="{&quot;elementType&quot;:&quot;letter&quot;,&quot;baseline&quot;:75.09765625,&quot;baselineProportion&quot;:0.9993502274204028,&quot;fontSize&quot;:100}"></path></g></g></g></g></g></svg>