<svg version="1.1" xmlns="http://www.w3.org/2000/svg" xmlns:xlink="http://www.w3.org/1999/xlink" width="500" height="500"><g data-paper-data="{&quot;description&quot;:&quot;Logo for Aelly sister\n=====================\n\nThis logo was generated by MarkMaker at http://emblemmatic.org/markmaker/ and may be composed of elements designed by others.\n\nThe font is Karma Light designed by Indian Type Foundry and released under the OFL license via Google Fonts: https://www.google.com/fonts/specimen/Karma. The font includes this copyright statement: Copyright (c) 2014 Indian Type Foundry (info@indiantypefoundry.com)\n\nMarkMaker uses semantic data from the Princeton University WordNet database http://wordnet.princeton.edu and font descriptions from Google Fonts https://www.google.com/fonts.&quot;}" fill="none" fill-rule="nonzero" stroke="none" stroke-width="none" stroke-linecap="butt" stroke-linejoin="miter" stroke-miterlimit="10" stroke-dasharray="" stroke-dashoffset="0" font-family="none" font-weight="none" font-size="none" text-anchor="none" style="mix-blend-mode: normal"><path d="M50,299.85119v-99.70237h400v99.70237z" fill="#152626" stroke-width="0"></path><g data-paper-data="{&quot;elementType&quot;:&quot;logo&quot;}" fill="#ffffff" stroke-width="1"><g data-paper-data="{&quot;elementType&quot;:&quot;text&quot;}"><g data-paper-data="{&quot;baseline&quot;:69.0090909090909,&quot;elementType&quot;:&quot;row&quot;}"><g data-paper-data="{&quot;baselineProportion&quot;:1,&quot;fontSize&quot;:100,&quot;baseline&quot;:67.80000000000001,&quot;elementType&quot;:&quot;word&quot;}"><path d="M109.24311,265.81506h-8.48041v-0.37482c0,-0.68718 0.20303,-1.12447 0.60909,-1.31189c0.18741,-0.09371 0.42168,-0.15618 0.7028,-0.18741l2.34266,-0.14056l-2.67063,-9.04265h-10.30769l-2.62377,8.94895l3.46713,0.28112c0.12494,1.21818 -0.23427,1.82727 -1.07762,1.82727h-7.87132v-0.37482c0,-0.68718 0.20303,-1.12447 0.60909,-1.31189c0.21865,-0.09371 1.07762,-0.20303 2.57692,-0.32797l9.0895,-29.65802c0.87459,-0.12494 1.74918,-0.12494 2.62377,0l9.04265,29.56432h0.04685l2.9986,0.28112c0.12494,1.21818 -0.23427,1.82727 -1.07762,1.82727M92.09487,252.64933h9.04265l-4.54475,-15.36782z" data-paper-data="{&quot;elementType&quot;:&quot;letter&quot;,&quot;baseline&quot;:67.80000000000001,&quot;baselineProportion&quot;:1,&quot;fontSize&quot;:100}"></path><path d="M140.86896,259.771v6.04405h-21.50558v-0.37482c0,-0.68718 0.20303,-1.12447 0.60909,-1.31189c0.18741,-0.09371 0.42168,-0.15618 0.7028,-0.18741l2.34266,-0.14056v-27.50278l-3.42028,-0.32797c-0.12494,-1.18695 0.24988,-1.78042 1.12447,-1.78042h19.5846v6.51258c0,0.84336 -0.60909,1.20256 -1.82727,1.07762l-0.46853,-5.24755l-12.27552,-0.23427v12.74405l9.18321,-0.51538c0.18741,0.93706 0.18741,1.95221 0,3.04545l-9.18321,-0.51538v12.65034l12.83775,-0.28112l0.46853,-4.73216c0.24988,-0.12494 0.6169,-0.12494 1.10105,0c0.48415,0.12494 0.72622,0.48415 0.72622,1.07762z" data-paper-data="{&quot;elementType&quot;:&quot;letter&quot;,&quot;baseline&quot;:67.5,&quot;baselineProportion&quot;:1,&quot;fontSize&quot;:100}"></path><path d="M172.96334,259.771v6.04405h-21.41187v-0.37482c0,-0.68718 0.20303,-1.12447 0.60909,-1.31189c0.18741,-0.09371 0.42168,-0.15618 0.7028,-0.18741l2.34266,-0.14056v-27.59648l-3.46713,-0.28112c-0.12494,-1.21818 0.23427,-1.82727 1.07762,-1.82727h8.76153v0.32797c0,0.68718 -0.20303,1.14009 -0.60909,1.35874c-0.18741,0.09371 -0.42168,0.15618 -0.7028,0.18741l-2.34266,0.14056v27.59648l12.74405,-0.18741l0.46853,-4.82587c1.21818,-0.12494 1.82727,0.23427 1.82727,1.07762z" data-paper-data="{&quot;elementType&quot;:&quot;letter&quot;,&quot;baseline&quot;:67.7,&quot;baselineProportion&quot;:1,&quot;fontSize&quot;:100}"></path><path d="M203.83955,259.771v6.04405h-21.41187v-0.37482c0,-0.68718 0.20303,-1.12447 0.60909,-1.31189c0.18741,-0.09371 0.42168,-0.15618 0.7028,-0.18741l2.34266,-0.14056v-27.59648l-3.46713,-0.28112c-0.12494,-1.21818 0.23427,-1.82727 1.07762,-1.82727h8.76153v0.32797c0,0.68718 -0.20303,1.14009 -0.60909,1.35874c-0.18741,0.09371 -0.42168,0.15618 -0.7028,0.18741l-2.34266,0.14056v27.59648l12.74405,-0.18741l0.46853,-4.82587c1.21818,-0.12494 1.82727,0.23427 1.82727,1.07762z" data-paper-data="{&quot;elementType&quot;:&quot;letter&quot;,&quot;baseline&quot;:67.7,&quot;baselineProportion&quot;:1,&quot;fontSize&quot;:100}"></path><path d="M231.34232,234.0955h6.93426c0,0 0,0.10932 0,0.32797c0,0.93706 -0.4373,1.45245 -1.31189,1.54615l-0.93706,0.14056h-0.04685l-9.46433,16.96083v10.63566l3.46713,0.28112c0.12494,1.21818 -0.23427,1.82727 -1.07762,1.82727h-8.85524v-0.37482c0,-0.68718 0.20303,-1.12447 0.60909,-1.31189c0.18741,-0.09371 0.42168,-0.15618 0.7028,-0.18741l2.34266,-0.14056v-10.72936l-9.55804,-16.86712l-2.53007,-0.28112c-0.12494,-1.21818 0.23427,-1.82727 1.07762,-1.82727h8.10559v0.32797c0,0.68718 -0.20303,1.14009 -0.60909,1.35874c-0.18741,0.09371 -0.42168,0.15618 -0.7028,0.18741l-2.24895,0.14056l8.33985,14.85244l7.91818,-14.75873l-3.23286,-0.28112c-0.12494,-1.21818 0.23427,-1.82727 1.07762,-1.82727z" data-paper-data="{&quot;elementType&quot;:&quot;letter&quot;,&quot;baseline&quot;:67.7,&quot;baselineProportion&quot;:1,&quot;fontSize&quot;:100}"></path></g><g data-paper-data="{&quot;baselineProportion&quot;:0.9787261474987107,&quot;fontSize&quot;:100,&quot;baseline&quot;:69.0090909090909,&quot;elementType&quot;:&quot;word&quot;}"><path d="M263.69125,235.36053c1.03077,0.81212 1.54615,1.75699 1.54615,2.83461c0,1.07762 -0.25769,1.82727 -0.77308,2.24895c-0.51538,0.42168 -1.11667,0.63252 -1.80384,0.63252c0,-1.62424 -0.48415,-2.90489 -1.45245,-3.84196c-0.9683,-0.93706 -2.41294,-1.40559 -4.33391,-1.40559c-1.92098,0 -3.49056,0.42949 -4.70874,1.28846c-1.21818,0.85897 -1.82727,2.08496 -1.82727,3.67797c0,1.87412 0.87459,3.38904 2.62377,4.54475c1.37436,0.90583 2.96736,1.73357 4.77902,2.48322c1.81165,0.74965 3.12354,1.3275 3.93566,1.73357c0.81212,0.40606 1.67109,0.95268 2.57692,1.63986c1.65548,1.21818 2.48322,3.06888 2.48322,5.55209c0,2.48322 -1.04639,4.73216 -3.13916,6.74685c-2.09277,2.01468 -4.79464,3.02203 -8.10559,3.02203c-2.40513,0 -4.53694,-0.49977 -6.39545,-1.4993c-1.85851,-0.99953 -2.78776,-2.28018 -2.78776,-3.84196c0,-0.68718 0.19522,-1.26503 0.58566,-1.73357c0.39044,-0.46853 0.89802,-0.7028 1.52273,-0.7028c0.46853,1.78042 1.38217,3.13135 2.74091,4.05279c1.35874,0.92144 3.11573,1.38217 5.27098,1.38217c2.15524,0 3.94347,-0.60909 5.36468,-1.82727c1.42121,-1.21818 2.13182,-2.87366 2.13182,-4.96643c0,-0.93706 -0.13275,-1.73357 -0.39825,-2.38951c-0.2655,-0.65594 -0.74965,-1.24942 -1.45245,-1.78042c-0.7028,-0.531 -1.3197,-0.93706 -1.8507,-1.21818c-0.87459,-0.46853 -2.02249,-0.99953 -3.4437,-1.59301c-1.42121,-0.59347 -2.58473,-1.12447 -3.49056,-1.59301c-0.90583,-0.46853 -1.85851,-1.07762 -2.85804,-1.82727c-1.9366,-1.40559 -2.90489,-3.25629 -2.90489,-5.55209c0,-2.2958 0.8824,-4.17774 2.6472,-5.6458c1.7648,-1.46806 4.00594,-2.23333 6.72342,-2.2958c2.77995,-0.06247 5.04452,0.56224 6.7937,1.87412z" data-paper-data="{&quot;elementType&quot;:&quot;letter&quot;,&quot;baseline&quot;:69.0090909090909,&quot;baselineProportion&quot;:0.9787261474987107,&quot;fontSize&quot;:100}"></path><path d="M282.80732,236.20389v27.50278l3.46713,0.28112c0.12494,1.21818 -0.23427,1.82727 -1.07762,1.82727h-8.76153v-0.37482c0,-0.68718 0.20303,-1.12447 0.60909,-1.31189c0.18741,-0.09371 0.42168,-0.15618 0.7028,-0.18741l2.34266,-0.14056v-27.50278l-3.42028,-0.28112c-0.12494,-1.21818 0.23427,-1.82727 1.07762,-1.82727h8.76153v0.32797c0,0.68718 -0.20303,1.14009 -0.60909,1.35874c-0.18741,0.09371 -0.42168,0.15618 -0.7028,0.18741l-2.34266,0.14056z" data-paper-data="{&quot;elementType&quot;:&quot;letter&quot;,&quot;baseline&quot;:67.5,&quot;baselineProportion&quot;:1,&quot;fontSize&quot;:100}"></path><path d="M313.58981,235.36053c1.03077,0.81212 1.54615,1.75699 1.54615,2.83461c0,1.07762 -0.25769,1.82727 -0.77308,2.24895c-0.51538,0.42168 -1.11667,0.63252 -1.80384,0.63252c0,-1.62424 -0.48415,-2.90489 -1.45245,-3.84196c-0.9683,-0.93706 -2.41294,-1.40559 -4.33391,-1.40559c-1.92098,0 -3.49056,0.42949 -4.70874,1.28846c-1.21818,0.85897 -1.82727,2.08496 -1.82727,3.67797c0,1.87412 0.87459,3.38904 2.62377,4.54475c1.37436,0.90583 2.96736,1.73357 4.77902,2.48322c1.81165,0.74965 3.12354,1.3275 3.93566,1.73357c0.81212,0.40606 1.67109,0.95268 2.57692,1.63986c1.65548,1.21818 2.48322,3.06888 2.48322,5.55209c0,2.48322 -1.04639,4.73216 -3.13916,6.74685c-2.09277,2.01468 -4.79464,3.02203 -8.10559,3.02203c-2.40513,0 -4.53694,-0.49977 -6.39545,-1.4993c-1.85851,-0.99953 -2.78776,-2.28018 -2.78776,-3.84196c0,-0.68718 0.19522,-1.26503 0.58566,-1.73357c0.39044,-0.46853 0.89802,-0.7028 1.52273,-0.7028c0.46853,1.78042 1.38217,3.13135 2.74091,4.05279c1.35874,0.92144 3.11573,1.38217 5.27098,1.38217c2.15524,0 3.94347,-0.60909 5.36468,-1.82727c1.42121,-1.21818 2.13182,-2.87366 2.13182,-4.96643c0,-0.93706 -0.13275,-1.73357 -0.39825,-2.38951c-0.2655,-0.65594 -0.74965,-1.24942 -1.45245,-1.78042c-0.7028,-0.531 -1.3197,-0.93706 -1.8507,-1.21818c-0.87459,-0.46853 -2.02249,-0.99953 -3.4437,-1.59301c-1.42121,-0.59347 -2.58473,-1.12447 -3.49056,-1.59301c-0.90583,-0.46853 -1.85851,-1.07762 -2.85804,-1.82727c-1.9366,-1.40559 -2.90489,-3.25629 -2.90489,-5.55209c0,-2.2958 0.8824,-4.17774 2.6472,-5.6458c1.7648,-1.46806 4.00594,-2.23333 6.72342,-2.2958c2.77995,-0.06247 5.04452,0.56224 6.7937,1.87412z" data-paper-data="{&quot;elementType&quot;:&quot;letter&quot;,&quot;baseline&quot;:69.0090909090909,&quot;baselineProportion&quot;:0.9787261474987107,&quot;fontSize&quot;:100}"></path><path d="M325.30309,234.1892h25.95663v5.38811c0,0.84336 -0.60909,1.20256 -1.82727,1.07762l-0.28112,-4.35734h-9.41748v27.40907l3.46713,0.28112c0.12494,1.21818 -0.23427,1.82727 -1.07762,1.82727h-8.76153c0,0 0,-0.12494 0,-0.37482c0,-0.68718 0.20303,-1.12447 0.60909,-1.31189c0.18741,-0.09371 0.42168,-0.15618 0.7028,-0.18741l2.34266,-0.14056v-27.50278h-9.60489l-0.28112,4.35734c-1.21818,0.12494 -1.82727,-0.23427 -1.82727,-1.07762z" data-paper-data="{&quot;elementType&quot;:&quot;letter&quot;,&quot;baseline&quot;:67.5,&quot;baselineProportion&quot;:1,&quot;fontSize&quot;:100}"></path><path d="M382.22963,259.771v6.04405h-21.50558v-0.37482c0,-0.68718 0.20303,-1.12447 0.60909,-1.31189c0.18741,-0.09371 0.42168,-0.15618 0.7028,-0.18741l2.34266,-0.14056v-27.50278l-3.42028,-0.32797c-0.12494,-1.18695 0.24988,-1.78042 1.12447,-1.78042h19.5846v6.51258c0,0.84336 -0.60909,1.20256 -1.82727,1.07762l-0.46853,-5.24755l-12.27552,-0.23427v12.74405l9.18321,-0.51538c0.18741,0.93706 0.18741,1.95221 0,3.04545l-9.18321,-0.51538v12.65034l12.83775,-0.28112l0.46853,-4.73216c0.24988,-0.12494 0.6169,-0.12494 1.10105,0c0.48415,0.12494 0.72622,0.48415 0.72622,1.07762z" data-paper-data="{&quot;elementType&quot;:&quot;letter&quot;,&quot;baseline&quot;:67.5,&quot;baselineProportion&quot;:1,&quot;fontSize&quot;:100}"></path><path d="M392.91214,265.81506v-0.46853c0,-0.531 0.09371,-0.87459 0.28112,-1.03077c0.40606,-0.24988 0.74965,-0.37482 1.03077,-0.37482l2.34266,-0.14056v-27.59648l-3.42028,-0.28112c0,-0.03124 -0.00781,-0.17179 -0.02343,-0.42168c-0.01562,-0.24988 -0.01562,-0.42168 0,-0.51538c0.01562,-0.09371 0.05466,-0.21865 0.11713,-0.37482c0.12494,-0.34359 0.45291,-0.51538 0.98392,-0.51538h10.12027c6.59067,0 9.88601,2.54569 9.88601,7.63706c0,2.59254 -0.84336,4.65408 -2.53007,6.18461c-1.68671,1.53054 -3.82634,2.48322 -6.41888,2.85804c1.96783,4.15431 4.00594,7.4106 6.11433,9.76887c2.10839,2.35827 3.86538,3.53741 5.27098,3.53741c0,0.74965 -0.17179,1.34312 -0.51538,1.78042c-0.34359,0.4373 -0.7965,0.65594 -1.35874,0.65594c-1.81165,0 -3.89662,-1.65548 -6.25489,-4.96643c-2.35827,-3.31095 -4.20897,-6.84055 -5.55209,-10.5888h-0.14056c-1.18695,0 -2.35827,-0.04685 -3.51398,-0.14056v12.88461l3.46713,0.28112c0,1.03077 -0.23427,1.62424 -0.7028,1.78042c-0.09371,0.03124 -0.21865,0.04685 -0.37482,0.04685h-8.80839M399.33101,236.11018v12.74405c1.12447,0.09371 2.18648,0.14056 3.18601,0.14056c2.87366,0 5.06795,-0.58566 6.58286,-1.75699c1.51492,-1.17133 2.27238,-2.78776 2.27238,-4.8493c0,-2.40513 -0.62471,-4.09184 -1.87412,-5.06014c-1.24942,-0.93706 -2.77995,-1.40559 -4.59161,-1.40559c-1.15571,0 -2.9986,0.06247 -5.52867,0.18741z" data-paper-data="{&quot;elementType&quot;:&quot;letter&quot;,&quot;baseline&quot;:67.7,&quot;baselineProportion&quot;:0.9783236994219653,&quot;fontSize&quot;:100}"></path></g></g></g></g></g></svg>