<svg version="1.1" xmlns="http://www.w3.org/2000/svg" xmlns:xlink="http://www.w3.org/1999/xlink" width="500" height="500"><g data-paper-data="{&quot;description&quot;:&quot;Logo for Aelly sister\n=====================\n\nThis logo was generated by MarkMaker at http://emblemmatic.org/markmaker/ and may be composed of elements designed by others.\n\nThe font is Overlock-Black designed by Dario Manuel Muhafara and released under the OFL license via Google Fonts: https://www.google.com/fonts/specimen/Overlock. The font includes this copyright statement: Copyright (c) 2011, Dario Manuel Muhafara (http://www.tipo.net.ar dario@tipo.net.ar), with Reserved Font Name \\\&quot;Overlock\\\&quot;.\n\nMarkMaker uses semantic data from the Princeton University WordNet database http://wordnet.princeton.edu and font descriptions from Google Fonts https://www.google.com/fonts.&quot;}" fill="none" fill-rule="nonzero" stroke="none" stroke-width="none" stroke-linecap="butt" stroke-linejoin="miter" stroke-miterlimit="10" stroke-dasharray="" stroke-dashoffset="0" font-family="none" font-weight="none" font-size="none" text-anchor="none" style="mix-blend-mode: normal"><path d="M50,250c0,-47.4567 89.54305,-85.92795 200,-85.92795c110.45695,0 200,38.47125 200,85.92795c0,47.4567 -89.54305,85.92795 -200,85.92795c-110.45695,0 -200,-38.47125 -200,-85.92795z" fill="#917f8c" stroke-width="0"></path><g data-paper-data="{&quot;elementType&quot;:&quot;logo&quot;}" fill="#ffffff" stroke-width="1"><g data-paper-data="{&quot;elementType&quot;:&quot;text&quot;}"><g data-paper-data="{&quot;baseline&quot;:67.3}"><g data-paper-data="{&quot;baselineProportion&quot;:0.9739507959479017,&quot;fontSize&quot;:100,&quot;baseline&quot;:67.3,&quot;elementType&quot;:&quot;word&quot;}"><path d="M145.91074,237.59458c-1.25196,0 -2.61079,-0.06107 -4.0765,-0.18321c-2.07642,5.00784 -3.32838,8.1988 -3.75588,9.5729c-1.06875,-0.15268 -1.8474,-0.27482 -2.33597,-0.36643c-0.48857,-0.09161 -1.05348,-0.25192 -1.69472,-0.48094c-0.64125,-0.22902 -1.08401,-0.52674 -1.3283,-0.89317c-0.24428,-0.36643 -0.36643,-0.82446 -0.36643,-1.3741c0,-0.64125 0.52674,-2.19856 1.58022,-4.67194c1.05348,-2.47338 2.46575,-5.89337 4.23681,-10.25995c1.77106,-4.36659 3.26731,-8.64157 4.48873,-12.82494c1.43517,-0.21375 2.61079,-0.32062 3.52686,-0.32062c2.56499,0 4.21391,1.11455 4.94676,3.34365c2.25963,6.96211 3.87802,11.69513 4.85516,14.19904c2.38178,6.19872 4.00016,10.13781 4.85516,11.81727c-1.43517,0.97714 -2.85508,1.46571 -4.25971,1.46571c-1.8016,0 -2.96195,-0.58018 -3.48106,-1.74053c-0.33589,-0.79393 -0.78629,-1.92374 -1.3512,-3.38945c-0.56491,-1.46571 -1.09165,-2.79401 -1.58022,-3.98489c-2.38178,0.06107 -3.80168,0.09161 -4.25971,0.09161zM149.16278,232.96844c-0.48857,-1.67946 -1.06875,-3.83985 -1.74053,-6.48118c-0.67178,-2.64133 -1.06875,-4.17574 -1.19089,-4.60324c-1.89321,6.59569 -2.96195,10.29049 -3.20624,11.08442c1.46571,0.06107 2.62606,0.09161 3.48106,0.09161c1.19089,0 2.07642,-0.03054 2.6566,-0.09161" data-paper-data="{&quot;elementType&quot;:&quot;letter&quot;,&quot;baseline&quot;:66.3,&quot;baselineProportion&quot;:0.973568281938326,&quot;fontSize&quot;:100}"></path><path d="M169.77429,220.46412c0.12214,0.97714 0.18321,3.32838 0.18321,7.05372h3.61847c1.95428,0 3.75588,-0.09161 5.4048,-0.27482c0.18321,0.39696 0.27482,1.03821 0.27482,1.92374c0,1.12982 -0.25955,1.91611 -0.77866,2.35887c-0.5191,0.44277 -1.45044,0.66415 -2.79401,0.66415h-5.72542c0,5.16051 0.12214,8.25987 0.36643,9.29808c1.34357,0.06107 2.42758,0.09161 3.25204,0.09161c4.9773,0 8.18354,-0.35116 9.61871,-1.05348c0.36643,0.91607 0.54964,1.96954 0.54964,3.16043c0,1.03821 -0.4046,1.72526 -1.21379,2.06115c-0.80919,0.33589 -2.41994,0.50384 -4.83226,0.50384c-7.298,0 -11.52718,-0.03054 -12.68753,-0.09161c-0.88553,-0.03054 -1.48098,-0.24428 -1.78633,-0.64125c-0.30536,-0.39696 -0.45803,-1.05348 -0.45803,-1.96954c0,-0.48857 0.01527,-1.61839 0.0458,-3.38945c0.03054,-1.77106 0.0458,-3.19097 0.0458,-4.25971v-9.16067c0,-4.30552 -0.19848,-7.86291 -0.59544,-10.67218c3.93909,-0.27482 7.95452,-0.41223 12.04629,-0.41223c4.39712,0 7.2522,0.24428 8.56523,0.73285c0.58018,0.21375 0.87026,0.82446 0.87026,1.83213c0,1.19089 -0.18321,2.2291 -0.54964,3.11463c-2.01535,-0.64125 -5.42007,-0.96187 -10.21415,-0.96187c-0.61071,0 -1.67946,0.03054 -3.20624,0.09161z" data-paper-data="{&quot;elementType&quot;:&quot;letter&quot;,&quot;baseline&quot;:66.60000000000001,&quot;baselineProportion&quot;:0.997005988023952,&quot;fontSize&quot;:100}"></path><path d="M187.04216,235.89986v-9.4813c0,-3.35891 -0.13741,-6.8247 -0.41223,-10.39736c1.16035,-0.24428 2.36651,-0.36643 3.61847,-0.36643c1.16035,0 2.14512,0.19848 2.95432,0.59544c0.80919,0.39696 1.21379,1.02294 1.21379,1.87794c0,0.15268 -0.05344,1.36647 -0.16031,3.64137c-0.10687,2.2749 -0.16031,4.19101 -0.16031,5.74832v8.97746c0,2.35124 0.12214,4.01543 0.36643,4.99257c1.34357,0.06107 2.44285,0.09161 3.29784,0.09161c4.9773,0 8.18354,-0.35116 9.61871,-1.05348c0.36643,0.91607 0.54964,1.96954 0.54964,3.16043c0,1.03821 -0.4046,1.72526 -1.21379,2.06115c-0.80919,0.33589 -2.41994,0.50384 -4.83226,0.50384c-7.298,0 -11.52718,-0.03054 -12.68753,-0.09161c-0.88553,-0.03054 -1.48098,-0.24428 -1.78633,-0.64125c-0.30536,-0.39696 -0.45803,-1.05348 -0.45803,-1.96954c0,-1.03821 0.01527,-2.41994 0.0458,-4.1452c0.03054,-1.72526 0.0458,-2.89325 0.0458,-3.50396z" data-paper-data="{&quot;elementType&quot;:&quot;letter&quot;,&quot;baseline&quot;:66.60000000000001,&quot;baselineProportion&quot;:0.997005988023952,&quot;fontSize&quot;:100}"></path><path d="M209.07358,235.89986v-9.4813c0,-3.35891 -0.13741,-6.8247 -0.41223,-10.39736c1.16035,-0.24428 2.36651,-0.36643 3.61847,-0.36643c1.16035,0 2.14512,0.19848 2.95432,0.59544c0.80919,0.39696 1.21379,1.02294 1.21379,1.87794c0,0.15268 -0.05344,1.36647 -0.16031,3.64137c-0.10687,2.2749 -0.16031,4.19101 -0.16031,5.74832v8.97746c0,2.35124 0.12214,4.01543 0.36643,4.99257c1.34357,0.06107 2.44285,0.09161 3.29784,0.09161c4.9773,0 8.18354,-0.35116 9.61871,-1.05348c0.36643,0.91607 0.54964,1.96954 0.54964,3.16043c0,1.03821 -0.4046,1.72526 -1.21379,2.06115c-0.80919,0.33589 -2.41994,0.50384 -4.83226,0.50384c-7.298,0 -11.52718,-0.03054 -12.68753,-0.09161c-0.88553,-0.03054 -1.48098,-0.24428 -1.78633,-0.64125c-0.30536,-0.39696 -0.45803,-1.05348 -0.45803,-1.96954c0,-1.03821 0.01527,-2.41994 0.0458,-4.1452c0.03054,-1.72526 0.0458,-2.89325 0.0458,-3.50396z" data-paper-data="{&quot;elementType&quot;:&quot;letter&quot;,&quot;baseline&quot;:66.60000000000001,&quot;baselineProportion&quot;:0.997005988023952,&quot;fontSize&quot;:100}"></path><path d="M241.59398,228.25069c1.06875,-1.64892 2.23673,-3.96199 3.50396,-6.93921c1.26723,-2.97722 1.91611,-4.96967 1.94664,-5.97734c4.39712,0.45803 6.59569,1.60312 6.59569,3.43525c0,0.27482 -0.09924,0.64888 -0.29772,1.12218c-0.19848,0.4733 -0.5191,1.06111 -0.96187,1.76343c-0.44277,0.70232 -0.86263,1.3512 -1.25959,1.94664c-0.39696,0.59544 -0.95424,1.38173 -1.67182,2.35887c-0.71759,0.97714 -1.25959,1.70999 -1.62602,2.19856c-0.36643,0.48857 -0.9466,1.25196 -1.74053,2.29017c-0.79393,1.03821 -1.28249,1.67946 -1.46571,1.92374v4.48873c0,3.41998 0.36643,6.3514 1.09928,8.79425c-1.12982,0.4275 -2.51919,0.64125 -4.16811,0.64125c-0.61071,0 -1.11455,-0.03817 -1.51151,-0.11451c-0.39696,-0.07634 -0.81683,-0.22902 -1.25959,-0.45803c-0.44277,-0.22902 -0.77102,-0.62598 -0.98477,-1.19089c-0.21375,-0.56491 -0.32062,-1.29013 -0.32062,-2.17566c0,-0.58018 0.01527,-1.67182 0.0458,-3.27494c0.03054,-1.60312 0.0458,-2.7711 0.0458,-3.50396v-2.88561c-4.45819,-8.39728 -7.7713,-13.06923 -9.93933,-14.01583c1.55731,-2.10695 3.19097,-3.16043 4.90096,-3.16043c1.70999,0 3.11463,0.96187 4.21391,2.88561c0.9466,1.70999 2.56499,4.99257 4.85516,9.84772z" data-paper-data="{&quot;elementType&quot;:&quot;letter&quot;,&quot;baseline&quot;:67.3,&quot;baselineProportion&quot;:0.9955621301775148,&quot;fontSize&quot;:100}"></path></g></g><g data-paper-data="{&quot;baseline&quot;:67.3,&quot;elementType&quot;:&quot;row&quot;}"><g data-paper-data="{&quot;baselineProportion&quot;:0.9853587115666178,&quot;fontSize&quot;:100,&quot;baseline&quot;:67.3,&quot;elementType&quot;:&quot;word&quot;}"><path d="M150.21626,261.39774c-0.48857,-0.88553 -1.38937,-1.65656 -2.7024,-2.31307c-1.31303,-0.65651 -2.58026,-0.98477 -3.80168,-0.98477c-1.00767,0 -1.8245,0.26719 -2.45048,0.80156c-0.62598,0.53437 -0.93897,1.3512 -0.93897,2.45048c0,0.97714 0.35879,1.8016 1.07638,2.47338c0.71759,0.67178 1.60312,1.16799 2.6566,1.48861c1.05348,0.32062 2.2062,0.72522 3.45815,1.21379c1.25196,0.48857 2.40468,1.00767 3.45815,1.55731c1.05348,0.54964 1.93901,1.40464 2.6566,2.56499c0.71759,1.16035 1.07638,2.56499 1.07638,4.21391c0,1.8016 -0.34353,3.35891 -1.03058,4.67194c-0.68705,1.31303 -1.62602,2.32834 -2.81691,3.04592c-1.19089,0.71759 -2.46575,1.24432 -3.82458,1.58022c-1.35883,0.33589 -2.81691,0.50384 -4.37422,0.50384c-2.80927,0 -5.22922,-0.39696 -7.25983,-1.19089c-2.03062,-0.79393 -3.04592,-1.83213 -3.04592,-3.11463c0,-0.9466 0.25955,-1.70999 0.77866,-2.29017c0.5191,-0.58018 1.40464,-1.20616 2.6566,-1.87794c0.76339,1.06875 1.90847,1.96191 3.43525,2.6795c1.52678,0.71759 3.00775,1.07638 4.44293,1.07638c1.22142,0 2.21383,-0.29009 2.97722,-0.87026c0.76339,-0.58018 1.14508,-1.48098 1.14508,-2.7024c0,-1.16035 -0.4962,-2.09169 -1.48861,-2.79401c-0.99241,-0.70232 -2.19093,-1.26723 -3.59556,-1.69472c-1.40464,-0.4275 -2.80927,-0.93897 -4.21391,-1.53441c-1.40464,-0.59544 -2.60316,-1.58022 -3.59556,-2.95432c-0.99241,-1.3741 -1.48861,-3.14516 -1.48861,-5.31319c0,-1.55731 0.33589,-2.91615 1.00767,-4.0765c0.67178,-1.16035 1.58022,-2.06879 2.7253,-2.7253c1.14508,-0.65651 2.39704,-1.13745 3.75588,-1.44281c1.35883,-0.30536 2.83217,-0.45803 4.42003,-0.45803c2.50392,0 4.65668,0.36643 6.45828,1.09928c1.8016,0.73285 2.7024,1.7558 2.7024,3.06883c0,0.79393 -0.37406,1.54205 -1.12218,2.24437c-0.74812,0.70232 -1.79397,1.23669 -3.13753,1.60312z" data-paper-data="{&quot;elementType&quot;:&quot;letter&quot;,&quot;baseline&quot;:67.3,&quot;baselineProportion&quot;:0.9853587115666178,&quot;fontSize&quot;:100}"></path><path d="M158.46086,273.62724v-9.16067c0,-3.35891 -0.13741,-6.8247 -0.41223,-10.39736c1.16035,-0.24428 2.36651,-0.36643 3.61847,-0.36643c1.16035,0 2.14512,0.20612 2.95432,0.61835c0.80919,0.41223 1.21379,1.04584 1.21379,1.90084c0,0.15268 -0.05344,1.38173 -0.16031,3.68717c-0.10687,2.30544 -0.16031,4.23681 -0.16031,5.79413v9.20648c0,3.41998 0.36643,6.3514 1.09928,8.79425c-1.12982,0.4275 -2.51919,0.64125 -4.16811,0.64125c-0.61071,0 -1.11455,-0.03817 -1.51151,-0.11451c-0.39696,-0.07634 -0.81683,-0.22902 -1.25959,-0.45803c-0.44277,-0.22902 -0.77102,-0.62598 -0.98477,-1.19089c-0.21375,-0.56491 -0.32062,-1.29013 -0.32062,-2.17566c0,-0.58018 0.01527,-1.67182 0.0458,-3.27494c0.03054,-1.60312 0.0458,-2.7711 0.0458,-3.50396z" data-paper-data="{&quot;elementType&quot;:&quot;letter&quot;,&quot;baseline&quot;:66.60000000000001,&quot;baselineProportion&quot;:0.9955156950672647,&quot;fontSize&quot;:100}"></path><path d="M187.08797,261.39774c-0.48857,-0.88553 -1.38937,-1.65656 -2.7024,-2.31307c-1.31303,-0.65651 -2.58026,-0.98477 -3.80168,-0.98477c-1.00767,0 -1.8245,0.26719 -2.45048,0.80156c-0.62598,0.53437 -0.93897,1.3512 -0.93897,2.45048c0,0.97714 0.35879,1.8016 1.07638,2.47338c0.71759,0.67178 1.60312,1.16799 2.6566,1.48861c1.05348,0.32062 2.2062,0.72522 3.45815,1.21379c1.25196,0.48857 2.40468,1.00767 3.45815,1.55731c1.05348,0.54964 1.93901,1.40464 2.6566,2.56499c0.71759,1.16035 1.07638,2.56499 1.07638,4.21391c0,1.8016 -0.34353,3.35891 -1.03058,4.67194c-0.68705,1.31303 -1.62602,2.32834 -2.81691,3.04592c-1.19089,0.71759 -2.46575,1.24432 -3.82458,1.58022c-1.35883,0.33589 -2.81691,0.50384 -4.37422,0.50384c-2.80927,0 -5.22922,-0.39696 -7.25983,-1.19089c-2.03062,-0.79393 -3.04592,-1.83213 -3.04592,-3.11463c0,-0.9466 0.25955,-1.70999 0.77866,-2.29017c0.5191,-0.58018 1.40464,-1.20616 2.6566,-1.87794c0.76339,1.06875 1.90847,1.96191 3.43525,2.6795c1.52678,0.71759 3.00775,1.07638 4.44293,1.07638c1.22142,0 2.21383,-0.29009 2.97722,-0.87026c0.76339,-0.58018 1.14508,-1.48098 1.14508,-2.7024c0,-1.16035 -0.4962,-2.09169 -1.48861,-2.79401c-0.99241,-0.70232 -2.19093,-1.26723 -3.59556,-1.69472c-1.40464,-0.4275 -2.80927,-0.93897 -4.21391,-1.53441c-1.40464,-0.59544 -2.60316,-1.58022 -3.59556,-2.95432c-0.99241,-1.3741 -1.48861,-3.14516 -1.48861,-5.31319c0,-1.55731 0.33589,-2.91615 1.00767,-4.0765c0.67178,-1.16035 1.58022,-2.06879 2.7253,-2.7253c1.14508,-0.65651 2.39704,-1.13745 3.75588,-1.44281c1.35883,-0.30536 2.83217,-0.45803 4.42003,-0.45803c2.50392,0 4.65668,0.36643 6.45828,1.09928c1.8016,0.73285 2.7024,1.7558 2.7024,3.06883c0,0.79393 -0.37406,1.54205 -1.12218,2.24437c-0.74812,0.70232 -1.79397,1.23669 -3.13753,1.60312z" data-paper-data="{&quot;elementType&quot;:&quot;letter&quot;,&quot;baseline&quot;:67.3,&quot;baselineProportion&quot;:0.9853587115666178,&quot;fontSize&quot;:100}"></path><path d="M201.92826,274.22269v-8.47362c0,-2.6566 -0.0458,-5.08417 -0.13741,-7.28274c-3.90855,0 -6.7789,0.09161 -8.61103,0.27482c-0.15268,-0.45803 -0.22902,-1.20616 -0.22902,-2.24437c0,-0.58018 0.10687,-1.05348 0.32062,-1.4199c0.21375,-0.36643 0.55727,-0.62598 1.03058,-0.77866c0.4733,-0.15268 0.9237,-0.25192 1.3512,-0.29772c0.4275,-0.0458 1.00767,-0.06871 1.74053,-0.06871h9.84772c5.12998,0 8.61103,-0.06107 10.44317,-0.18321c0.15268,0.67178 0.22902,1.3741 0.22902,2.10695c0,1.74053 -1.16035,2.61079 -3.48106,2.61079h-5.22158c-0.15268,2.90088 -0.22902,5.72542 -0.22902,8.47362v8.56523c0,3.08409 0.36643,5.81703 1.09928,8.1988c-1.34357,0.4275 -2.80927,0.64125 -4.39712,0.64125c-1.46571,0 -2.47338,-0.32826 -3.02302,-0.98477c-0.54964,-0.65651 -0.82446,-1.64129 -0.82446,-2.95432c0,-0.45803 0.01527,-1.35883 0.0458,-2.7024c0.03054,-1.34357 0.0458,-2.50392 0.0458,-3.48106z" data-paper-data="{&quot;elementType&quot;:&quot;letter&quot;,&quot;baseline&quot;:66.5,&quot;baselineProportion&quot;:0.9955089820359282,&quot;fontSize&quot;:100}"></path><path d="M227.39493,258.51213c0.12214,0.97714 0.18321,3.32838 0.18321,7.05372h3.61847c1.95428,0 3.75588,-0.09161 5.4048,-0.27482c0.18321,0.39696 0.27482,1.03821 0.27482,1.92374c0,1.12982 -0.25955,1.91611 -0.77866,2.35887c-0.5191,0.44277 -1.45044,0.66415 -2.79401,0.66415h-5.72542c0,5.16051 0.12214,8.25987 0.36643,9.29808c1.34357,0.06107 2.42758,0.09161 3.25204,0.09161c4.9773,0 8.18354,-0.35116 9.61871,-1.05348c0.36643,0.91607 0.54964,1.96954 0.54964,3.16043c0,1.03821 -0.4046,1.72526 -1.21379,2.06115c-0.80919,0.33589 -2.41994,0.50384 -4.83226,0.50384c-7.298,0 -11.52718,-0.03054 -12.68753,-0.09161c-0.88553,-0.03054 -1.48098,-0.24428 -1.78633,-0.64125c-0.30536,-0.39696 -0.45803,-1.05348 -0.45803,-1.96954c0,-0.48857 0.01527,-1.61839 0.0458,-3.38945c0.03054,-1.77106 0.0458,-3.19097 0.0458,-4.25971v-9.16067c0,-4.30552 -0.19848,-7.86291 -0.59544,-10.67218c3.93909,-0.27482 7.95452,-0.41223 12.04629,-0.41223c4.39712,0 7.2522,0.24428 8.56523,0.73285c0.58018,0.21375 0.87026,0.82446 0.87026,1.83213c0,1.19089 -0.18321,2.2291 -0.54964,3.11463c-2.01535,-0.64125 -5.42007,-0.96187 -10.21415,-0.96187c-0.61071,0 -1.67946,0.03054 -3.20624,0.09161z" data-paper-data="{&quot;elementType&quot;:&quot;letter&quot;,&quot;baseline&quot;:66.60000000000001,&quot;baselineProportion&quot;:0.997005988023952,&quot;fontSize&quot;:100}"></path><path d="M264.67887,278.75722c0.64125,0.73285 1.43517,1.09928 2.38178,1.09928c0.39696,0 0.82446,-0.0458 1.28249,-0.13741c0.27482,0.76339 0.41223,1.45044 0.41223,2.06115c0,1.03821 -0.4962,1.7787 -1.48861,2.22146c-0.99241,0.44277 -2.12986,0.66415 -3.41235,0.66415c-1.64892,0 -2.97722,-0.5191 -3.98489,-1.55731c-1.92374,-1.95428 -3.90855,-5.74069 -5.95444,-11.35924c-0.58018,-0.21375 -0.87026,-0.65651 -0.87026,-1.3283c0,-0.61071 0.16795,-1.31303 0.50384,-2.10695c0.33589,0.09161 0.73285,0.13741 1.19089,0.13741c1.34357,0 2.36651,-0.52674 3.06883,-1.58022c0.70232,-1.05348 1.05348,-2.43521 1.05348,-4.1452c0,-1.74053 -0.44277,-2.95432 -1.3283,-3.64137c-0.88553,-0.68705 -2.24437,-1.03058 -4.0765,-1.03058c-0.48857,0 -1.06875,0.03054 -1.74053,0.09161c0.09161,1.22142 0.13741,4.13757 0.13741,8.74844v8.1988c0,3.45052 0.36643,6.32086 1.09928,8.61103c-1.12982,0.4275 -2.56499,0.64125 -4.30552,0.64125c-1.52678,0 -2.56499,-0.32826 -3.11463,-0.98477c-0.54964,-0.65651 -0.82446,-1.64129 -0.82446,-2.95432c0,-0.48857 0.01527,-1.47334 0.0458,-2.95432c0.03054,-1.48098 0.0458,-2.75584 0.0458,-3.82458v-9.16067c0,-4.09177 -0.18321,-7.60336 -0.54964,-10.53477c2.62606,-0.36643 5.25212,-0.54964 7.87818,-0.54964c9.43549,0 14.15324,3.19097 14.15324,9.5729c0,4.15284 -1.8474,6.94684 -5.54221,8.38202c1.49624,3.66427 2.80927,6.13765 3.93909,7.42015z" data-paper-data="{&quot;elementType&quot;:&quot;letter&quot;,&quot;baseline&quot;:67.3,&quot;baselineProportion&quot;:0.9853587115666178,&quot;fontSize&quot;:100}"></path></g></g></g></g><g data-paper-data="{&quot;elementType&quot;:&quot;emblem&quot;}" fill="#ffffff" stroke-width="1"><g data-paper-data="{&quot;baselineProportion&quot;:0.973568281938326,&quot;fontSize&quot;:100,&quot;baseline&quot;:66.3,&quot;elementType&quot;:&quot;word&quot;}"><path d="M327.8195,266.55409c-3.33932,0 -6.96371,-0.16289 -10.87317,-0.48868c-5.53839,13.3573 -8.87772,21.8685 -10.01797,25.53362c-2.85064,-0.40723 -4.92754,-0.73302 -6.23069,-0.97736c-1.30315,-0.24434 -2.80992,-0.67194 -4.52031,-1.28279c-1.71039,-0.61085 -2.89137,-1.40496 -3.54294,-2.38232c-0.65158,-0.97736 -0.97736,-2.19907 -0.97736,-3.66511c0,-1.71039 1.40496,-5.86418 4.21488,-12.46138c2.80992,-6.5972 6.57684,-15.71926 11.30076,-27.36617c4.72392,-11.64691 8.71482,-23.04949 11.9727,-34.20772c3.82801,-0.57013 6.96371,-0.85519 9.40712,-0.85519c6.84154,0 11.23968,2.97281 13.19441,8.91844c6.02707,18.5699 10.34376,31.19418 12.95006,37.87283c6.35286,16.53373 10.66955,27.04039 12.95006,31.51997c-3.82801,2.6063 -7.61529,3.90945 -11.36185,3.90945c-4.80537,0 -7.90035,-1.54749 -9.28495,-4.64248c-0.89592,-2.11762 -2.09726,-5.13116 -3.60403,-9.04061c-1.50677,-3.90945 -2.91173,-7.4524 -4.21488,-10.62883c-6.35286,0.16289 -10.14014,0.24434 -11.36185,0.24434zM336.4936,254.21488c-1.30315,-4.47958 -2.85064,-10.24195 -4.64248,-17.28711c-1.79183,-7.04516 -2.85064,-11.13787 -3.17643,-12.27813c-5.04971,17.59254 -7.90035,27.44762 -8.55193,29.56524c3.90945,0.16289 7.00444,0.24434 9.28495,0.24434c3.17643,0 5.53839,-0.08145 7.08588,-0.24434" data-paper-data="{&quot;elementType&quot;:&quot;letter&quot;,&quot;baseline&quot;:66.3,&quot;baselineProportion&quot;:0.973568281938326,&quot;fontSize&quot;:100}"></path></g></g></g></svg>